<?xml version="1.0" encoding="UTF-8"?>
<svg id="OBJECTS" xmlns="http://www.w3.org/2000/svg" version="1.1" viewBox="0 0 500 500">
  <!-- Generator: Adobe Illustrator 29.3.1, SVG Export Plug-In . SVG Version: 2.1.0 Build 151)  -->
  <defs>
    <style>
      .st0 {
        fill: #98a1ae;
      }

      .st0, .st1, .st2, .st3, .st4, .st5, .st6, .st7, .st8, .st9, .st10, .st11, .st12, .st13, .st14, .st15, .st16, .st17, .st18, .st19 {
        fill-rule: evenodd;
      }

      .st1 {
        fill: #fff;
      }

      .st2 {
        fill: #d0868a;
      }

      .st3 {
        fill: #f9fafb;
      }

      .st4 {
        fill: #ffaea2;
      }

      .st5 {
        fill: #f1b6b9;
      }

      .st6 {
        fill: #b09280;
      }

      .st7 {
        fill: #e9a6a9;
      }

      .st8 {
        fill: #6e5647;
      }

      .st9 {
        fill: #fba;
      }

      .st10 {
        fill: #563629;
      }

      .st11 {
        fill: #d78747;
      }

      .st12 {
        fill: #dd8d4b;
      }

      .st13 {
        fill: #e5e7eb;
      }

      .st14 {
        fill: #eda6a6;
      }

      .st15 {
        fill: #e0f2fe;
      }

      .st16 {
        fill: #e3d7d7;
      }

      .st17 {
        fill: #c96b6b;
      }

      .st18 {
        fill: #9e5723;
      }

      .st19 {
        fill: #fdada2;
      }
    </style>
  </defs>
  <path class="st1" d="M94.6,434.9c-45-41.6-73.2-101.1-73.2-167.2,0-125.8,102-227.7,227.7-227.7s227.7,102,227.7,227.7-28.2,125.6-73.2,167.2H94.6Z"/>
  <g>
    <g>
      <path class="st1" d="M353.9,105.8c0,3.7-.2,12.2-3.6,14.3-4.7,2.9-10.4,3.1-15.8,2.8-5.3-.4-10.6-.8-16-1.1-4.7-.2-9.4.4-14,0-1.7-.2-6.8-1.4-5.9-3.8-3.2-4.6-3.7-10.7-2.1-16,2.1-6.2,5.7-11.8,9.1-17.3,1.4-2.2.1-4.5-.2-6.8-.2-1.3,0-3.6.6-5.8h0c0-.2-.1-.4-.1-.6.6-3.8,2.7-7.1,3.9-10.7.8-2.2-.7-4.2-1.8-6-.9-1.1-1.2-3.3.6-3.6,2.1,0,2.8,2.9,3.7,4.4,2.9-.9,5.7-2,8.6-2.8,3.1-1,4.8-1.8,8.2-1.3,1.5-.2,2.8.5,4.1,1.1,1.1.4,2.2.4,3.3.6,1.6.3,3.2,1.1,4.9.6,1.2-.2,2.4-.7,3.5-1.2,1.2-.6,2.9.2,2.6,1.7-.5,2.3-2.9,3.4-4.8,4.4.3,4.6,1.4,8.9,2.8,13.3,1.3,4.1,1.8,7-.9,10.6,1.1,3,2.8,5.9,4.1,8.8,2.2,4.7,4.9,9.4,5.1,14.7Z"/>
      <path class="st16" d="M326.2,98.7c1.4.8,10.7.4,9.6-2.1-.2-.6-1-.8-1.5-.5-2.3.9-7.6,1.9-9.1-.6.7-.7-.1-2-1.1-1.7-.1,0-.2,0-.3.1-.4-.3-1.1-.4-1.6,0-.9.7-3.6,1.2-3.5,2.5-3.6.8-5.1-2-6.2-.8-1.3,1.8,1.7,2.5,3,2.8,2.7.6,5.9,0,7.7-2.1.4,1.3,1.8,2,3,2.5h0ZM329.1,53c.2-1,1.4-2.5,2.4-1.8.8.7.2,1.6-.4,2.2-.4,1.1-2.1.7-2.1-.4h0ZM325.2,52.9c0,.6.5,1.1,1.1,1.1.7,0,1.1-.7,1.6-1.1.6-.6,1.8-1.5.9-2.4-1-1-1.9.4-2.6,1.1-.4.4-1,.8-1,1.4Z"/>
      <path class="st13" d="M305.1,71.9c0-.6.4-1.1,1-1.3,0-.6.2-1.1.6-1.6-.3-1.3.6-2.4,1-3.6.9-2.2,1.9-4.4,2.9-6.6-1.8-.7-2.2-4-2.9-5.6-.3-1.4,1.6-2.4,2.6-1.3,1.5.8,1.6,2.9,2.8,4.1,0,0,.1,0,.2,0,.1-.2.3-.3.5-.4.3-.2.6-.2.9-.2-.4-1.3.2-2.9,2.1-2.1,3.1-1.2,4,3.5,4.6,5.6,1.3,8.1-4.3,18-13.6,15.7-2.4-.2-3-1.7-2.7-2.7h0ZM342.9,57.6c-3.8-1.8,1.8-7.1,4.4-5.7,3,2.3-1.7,6.5-4.4,5.7h0ZM314.9,95.2c-1.1,0-2.4-.5-3.2-1.3-1.3-1.3-.7-3.9,1.2-4,.9-2.3,8.1-.9,8.6,1.5,3.2,3-4.7,4.3-6.6,3.9h0ZM353,116.3c-6.7-1.9-10.5-9.8-10.3-16.4.1-3.9,1.1-7.9,3.3-11.1.8-2.3,4-.4,2.5,1.5,4.3.1,10.2,26.8,4.4,26h0ZM347.1,90.7c-.2,0-.3,0-.5-.2.1,0,.3.2.5.2Z"/>
      <path class="st11" d="M314.4,95.8c-.7,0-1.1-.1-1.4-.5-.4-.2-.6-.6-.3-1.4.3-.8,2.6-.5,4.2-.4,1.5-.2,3-.7,4.3-1.6.5-.3,1.2-.1,1.5.4,0,0,0,0,0,.1.1,0,.2.2.3.3.8,2.2-3.7,2.8-6.2,2.9-1,.1-1.9.2-2.4.1h0ZM343.9,58.9c-2.1-.7,0-2.5.8-3.4.8-.9,1.4-1.9,1.9-3,.5-1.3,2.5-.4,2,.8-.4,1.3-3.2,5.6-4.6,5.6h0ZM305.5,74c-1.7-.7,0-3,.2-4.3,1.1-2.9,2.5-5.8,3.5-8.8.3-.7.4-1.8,1.4-1.9.6,0,1.1.3,1.2.9,0,.7-.5,1.3-.6,1.9-1.1,3.2-2.6,6.3-3.8,9.5-.4,1-.3,3-1.9,2.7h0ZM309.1,57.5c-1.3-1-3.6-8.4-.1-7,.4.3.5.9.3,1.3,0,.9.1,1.7.4,2.6.2.7.6,1.3,1.1,1.8.9,1.1-.8,2.4-1.7,1.3Z"/>
      <path class="st9" d="M324.3,77.4c-.2,0-.4-.2-.5-.4-.7.3-1.6.1-1.8-.7-1,.3-1.9-1-1.1-1.8,1.1-.8,2.7-1,4.1-1.1,1.4,0,3.2.4,3.9,1.7.2.7-.5,1.5-1.2,1.3-1,.5-2.3,1.2-3.4.9Z"/>
      <path class="st4" d="M310.9,78.1c-4.6-.9-2-7.6,2-5.4,2.9,1.5,1.2,6.1-2,5.4Z"/>
      <path class="st4" d="M336.4,78.5c-3.3-2.8,2-7.2,4.4-3.8,2.5,2.8-1.9,5.9-4.4,3.8Z"/>
      <path class="st12" d="M321.8,96.6c-.2-.9.1-2.1.7-2.8.1-1-.2-3.1,1.4-3,1.9.6.7,3.1.4,4.4,0,1.3-1.6,3-2.5,1.3Z"/>
    </g>
    <g>
      <path class="st10" d="M312.6,55.2c-1.3-2.3,8.9-4.2,10.5-4.4,1.9-.5,4.6-3.1,6.4-1.2,1.2-.4,3-.6,3.5.9,1.8.5,9.9,1.7,9.1,4.3-.2.5-.9.8-1.4.5-3-2.3-8.9-1.9-9.6-3.9-1.1.2-2.6,1-3.2-.4-1.6.4-2.9,1.5-4.4,1.9-1.3.2-2.7.4-3.9.7-1.6.5-3.3,1.1-4.8,1.7-.7.4-1.6.7-2-.2Z"/>
      <path class="st10" d="M309.9,59c-6.6-3.8-3.4-14.4,2.6-7.6.7,1.1,2.9,4.2.5,4.6-1.3-.2-1.1-1.9-1.8-2.7-.6-1.3-3-3.1-2.9-.6,0,1.9,1.3,3.4,2.8,4.5,1.2.8,0,2.6-1.2,1.8Z"/>
      <path class="st10" d="M342.4,58.4c-.3-1.8,2.5-1.7,3.4-2.8,1.2-.6,2.8-4.3.3-3.2-1.3.7-2.7,1.5-3.7,2.7-.2.4-.6.7-1.1.7-2.8-1.1,1.1-3.7,2.4-4.4,6.2-4.3,8,3.7,2.7,6.5-1.1.5-3.1,2.2-3.9.6Z"/>
      <path class="st10" d="M313.7,86.5c-5.7-.4-10.8-5.4-9.9-11.4.6-5.9,3.7-11.3,6.1-16.5,1-.9,2.4.5,1.5,1.5-.6,1.4-1.2,2.9-1.8,4.3-2.1,4.6-4.9,10-3.2,15.1,2.2,4.7,8.5,6.1,12.9,3.9.5-.2,1.2.1,1.4.7.5,2.3-5.4,2.6-7,2.5Z"/>
      <path class="st10" d="M333.9,87.8c-2.6-.2-4.9-1.8-6.5-3.8-.9-1,.7-2.5,1.6-1.4,4,5.5,12.5,2.9,15.8-2.1,2.8-5,0-10.6-1.3-15.6-.5-1.9-.9-3.8-1.5-5.6.2-1.5,2.2-1.2,2.3.2,1.2,6.3,4.6,12.4,3.5,18.9-1.3,6.1-8,9.8-13.9,9.4Z"/>
      <path class="st10" d="M324.3,86.4c-.1-.1-.2-.2-.3-.3-1.8,1.8-4.3,0-4-2.3-.9-1.6,2.7-3,3.7-3.8,1.9-1.2,3,.9,4.4,1.8,2.4,2-1,7.2-3.7,4.7h0ZM326,84.9c.5-.3.7-1,.7-1.6-.7-.5-1.3-1-1.9-1.6-1,.5-1.8,1.2-2.7,1.8,0,.4,0,.8.1,1.1,1.9-1.7,2-1.3,3.7.3Z"/>
      <path class="st10" d="M324.9,81.1c-1.3-.1-1-1.7-.9-2.6-1,.3-1.6-.9-2.3-1.4-.8-.6-1.3-1.4-1.5-2.3,0,0,0,0,.1,0,0,0,0,0,.1,0,0,0,0,0,.1,0,0,0,.1,0,.2,0,0,0,.1,0,.2,0,0,0,.1,0,.2,0,0,0,.2,0,.3,0,.1,0,.3,0,.4,0,.1,0,.2,0,.4.1.1,0,.2,0,.3.2.5.7,1.2,1.2,1.9,1.8.1.1.2.3.3.5,1-.9,2.3-1.6,3.2-2.6.2,0,.4-.1.6-.2,0,0,0,0,0,0,.1,0,.2,0,.4.1.2.1.5.2.7.4,0,0,.1,0,.2.1,0,0,0,.1,0,.2,0,0,0,0,0,0,0,0,0,0,0,.1,0,0,0,0,0,.1,0,0,0,0,0,0,0,0,0,0,0,.1-.7.9-1.9,1.9-3.7,3.1,0,.9.1,2.4-1.1,2.4s0,0,0,0Z"/>
      <path class="st10" d="M313.4,70.3c-1.2-1.4.9-3.6,2-1.8.6,1.2-.9,3-2,1.8h0ZM315,69.7s0,0,0,0c0,0,0,0,0,0,0,0,.1-.1.1-.2,0,.1-.1.2-.2.3Z"/>
      <path class="st10" d="M335.8,71.4c-1.1-1-.4-3.7,1.3-2.5,1.8.7.3,3.8-1.3,2.5Z"/>
      <path class="st10" d="M315.8,96.4c-1,0-1.9-.3-2.9-.4-1.4-.3-.9-2.4.4-2.1,1.6.8,11.9.4,7.2-2.5-2.3-1.3-5.1-1-7.6-.9-2-.3-1.3-2.6.9-2.2,10.7-1.2,15.2,8.3,2,8.1Z"/>
      <path class="st10" d="M326.8,96.9c-3.6-.6-4.2-4.1-1-6,1.8-1.1,4.1-1.7,6.2-1.9,1.7-.4,2.4,2,.5,2.2-2.3,0-5.4.6-6.7,2.7,1.2,2.6,10.1-.5,10,2.2-.1,1.4-1.8.9-2.8,1-2.1,0-4.2.2-6.2-.2Z"/>
      <path class="st10" d="M297.1,116.9c-4-5.1-2.8-12.3-1-18.1,2-5.9,6.6-10.3,8.7-15.9,1-2.1,3.2-.3,1.4,2.4-2.9,5.3-7.1,10-8.7,15.9-1.1,4.7-2,10.4,1.3,14.5.8,1.1-1,2.4-1.8,1.2Z"/>
      <path class="st10" d="M350.2,120.2c-1.3-1.3,1.5-3,1.9-4.3,1.8-3.2,1.4-7.1,1.2-10.6-.9-7.5-5.3-13.8-8.3-20.6-1.8-3,.9-4,1.5-2.1,3.6,8.7,9.7,16.8,9.2,26.7,0,2.9-.4,6-2.1,8.4-.8.9-1.8,3.4-3.3,2.4Z"/>
      <path class="st10" d="M300.1,119.4c-1.1-.1-3.1-1.8-2-3,.9-.8,1.6.3,2.2.8,1.3.2,1,2.2-.3,2.1Z"/>
      <path class="st10" d="M321.5,99c-1.1-.9-2.2-4.5,0-4.5,1.5.2.6,2,1.3,2.9,1.2-.7,1-3.5,2.8-3,2.1,1-2,7-4.2,4.7Z"/>
      <path class="st10" d="M324.7,91.6c-.3-.7-1.1-.3-1.6-.3-1.4,0-1.4-2.1,0-2.1,1.4-.5,3.5.3,3.6,1.9,0,.9-1.4,1.3-1.9.5Z"/>
      <path class="st10" d="M348.4,81.4c.7-2.2,1.4-4.5,1.3-6.9,0-.6.3-1.1.9-1.2,2.7,0,.5,7-.1,8.5,0,0,0,0,0-.1,0,0,0,0,0,0-.2,1.2-2.2,1-2.1-.2Z"/>
      <path class="st10" d="M300.5,79.2c-.6-1.7-.8-10.2,2.3-8.8,1.1,1-.7,2.9-.5,4.3-.5,1.5,1.1,4.8-.5,5.2-.5.1-1.2-.2-1.3-.7Z"/>
    </g>
  </g>
  <g>
    <g>
      <path class="st1" d="M405,252.6c.6,4.8,1.2,9.6.2,14.3-.3.9-.5,2.5-.8,4.1.1.4.2.8.1,1.2-.6,3.4-1.4,6.9-2.5,10.2-2.9,8.3-11.5,6.5-18.3,5-18.7-4.2-37.2-9.4-56.1-12.6-9.6-1.3-19.4-.9-29.1-.4-13.2.9-26.1,4.3-39,7-5.7,1.1-11.2,2.9-17,3-1.6.4-3-.5-3.6-1.6-.6,0-1.1-.4-1.5-.9-3.2-5.1-3.5-11.6-3.8-17.5-.6-5.9,0-11.7,1.9-17.3.6-1.5.5-2.9.3-4.5.1-2.1,1.1-4.1,1.9-6.1,1.4-3.3,3.8-6.2,5-9.6.5-2.5.8-5,2.4-7.1,2.7-4.4,6.6-8.3,8.1-13.4-5.4-3.2-17.6-13.7-11.3-20.3-3.1-2.5-5.9-7-3.8-10.9.9-1.8,3.2-1.7,4.5-3-2.5-4.9-2.8-6.6,2.2-9.5,2-1.9,3.7-4.2,5.3-6.5,5.4-7,1.7-8.7,4.5-16.1.4-3.8-.7-10.2,3.1-12.4,0-.7.5-1.3,1-1.7,0-.2-.2-.4-.2-.6-.2-9.2.9-41,16.6-28.9,4.1,3.6,6,9,8.8,13.6,2.1,3.4,4.2,6.8,6,10.4.1.2.2.4.4.7,1.3-1.6,4-1.6,5.8-2.4,3.8-1.4,7.5-2.9,11.2-4.5,3.1-1.3,6.2-2.4,9.1-4.1,2.4-1.7,5.5.7,4.4,3.4,2.7-.8,7.9-4.4,8.6.5,9.9.6,19.6,3,28.9,6.6.2-.3.3-.7.6-1,3.1-9.2,10.8-20,18.8-25.6,2.4-1.4,5.5,0,7.1,1.9,3.9,4.5,4,11.1,4.2,16.8-.2,5.9-.5,11.9-1.7,17.7,2,.6,3.2,3.4,0,10.2,2,2.6.4,5.9-.7,8.5,0,.2.2.4.2.5.6.3,1.1.8,1.3,1.4.7,1.8,2.3,3.8,1.8,5.8,1.2,1.6,2.4,3.2,3.9,4.5,7.4,5.5,7.1,5,2.2,12.8,11.1,1.2,3.6,7.8.5,13.1,2.1-.3,4.9-.5,5,2.4-.9,4-4.6,6.8-7.4,9.7-2.1,2-4.1,3.9-6,6.1-.3.3-.5.7-.8,1.1,3.1,5.4,7.5,10.2,9.7,16.1.8,2.3,2,5.6,1.4,8.1.4.6.8,1.2,1.2,1.6,1.5,2.2,2.7,4.6,3.2,7.2.4,2.1,0,4.3.8,6.4.9,2.1,1,4.3,1.3,6.5Z"/>
      <path class="st0" d="M273.3,171.2c.9,1.7-1.6,1.6-2.6,1.7-9,.8-17.7,3.4-25.7,7.3-1.1.5-2,1-3,1.6-.8.4-1.4,1.8-2.4,1.2-.3-.3-.4-.8-.1-1.1-3.4-3.2-2.8-7.8,1.9-9.2,1.9-1-1.1-2.8-.7-4.4-.1-2.6,18.6,0,21.1.2,3.8.8,8.1.8,11.6,2.6h0ZM402.6,263.5c.4,1.2,4.5,7.1,1.6,6.9-1.1,2.5,1.2,11.7-2.8,11.5-3.8-6.1-5.1-13.8-8.8-20.1-.6-2.4-9.7-12.3-5.5-13.1,7,2.2,12,8.6,15.5,14.8h0ZM404.2,252.5c-.6-3.2-1.4-6.4-1.1-9.7,1.3-.3,1.6-1.6.9-2.7-4.2-6.6-10.8-11.7-17.7-15.3-2.2-1.5-10.9-2.9-8.4,1.9,10.6,8.3,20.4,18.3,27,30.2.1.4.6.6,1,.5,1.7-.9-1.3-3.8-1.7-4.9h0ZM254.8,241.6c2.7-.8,1.6,2.1.5,3.2-5.7,6.6-11.8,13-14.9,21.3-1.1,2.5-2.1,5-2.6,7.7-.2,1.1-.4,4.3-2.2,2.8-.8-1.9-.4-4.1-.6-6.1-.3-1.8-1.1-3.6-1.1-5.4-3-.4,1.4-6.1,2.2-7.4,5-6.5,11.2-12.4,18.7-15.9h0ZM237.4,236.1c-1.1,2.4-3.1,5.7-1.8,8.3.5.6,1.2.9,1,1.7-.5.9-1.4,1.7-1.6,2.7,0,.4.4.8.8.8.8,0,.8-.9,1.3-1.4,1.2-1.7,2.4-3.2,3.8-4.8,5-5.6,11.1-10.1,17.7-13.6,17.1-8.9-16.1-5.6-21.1,6.2h0ZM343.6,115.6c2.3,1-.5,4.3-.9,5.9-1.2,3.1-2.6,6.1-4,9.1-1.3,2.4-4.3,12.1-7.2,11.8-1-.3-1-1.5-.9-2.4.2-3.3.7-6.6,1-10,.4-4.2.9-8.5,1.3-12.7.1-.5-.1-1.1.2-1.6.3-.4,1-.4,1.3,0,1.5-.6,3.6-.1,5.3-.4,1.3,0,2.6-.1,3.9.2h0ZM322.8,112.9c1.4-.1,3.8-3.1,4.6-.9-.3,5.3-1.4,10.6-2.1,15.8-.9,3.4-1.2,18.5-5.5,18.1-2.9-1.7-1.9-8.6-2.6-11.7-.3-3.4-.6-6.8-.8-10.2-.2-3.6-.5-7.2-1.1-10.8,0-.9-.5-1.8-.3-2.7.2-.5.7-.6,1.1-.5,0,0,.1,0,.2,0,.2,0,.3,0,.5.2.8-1,2.9-.9,3.8-.2,1.3.5,1.1,2.8,2.2,2.9h0ZM309.4,126.5c-.4,2.5,1.7,14.1-1.4,14.2-4.1-1.8-5.3-12.7-6.4-16.9-.8-4.4-2.6-6.8,2.8-8.6,1.3-.2,4-2.9,4.8-1.5.3,4.3-.1,8.6.2,12.9h0ZM401.7,177.4c1,2.7-.3,6.1-2.8,7.5-.2.4-.6.5-1,.4-8.5-6.4-19-10.4-29.6-11.6-1.3,0-5.5,0-3.4-2.1,3.4-1.4,7.2-1.7,10.8-2.3,2.4-.3,24.8-2,23.3,1.4-7.9,5.3,1.1,2.5,2.7,6.8Z"/>
      <path class="st7" d="M276.3,116.2c.5,1.1,3.9,6.7,3.1,8.3-.2,0-.4-.1-.6-.2-.7-.2-1.4-.2-2.1,0-.8.2-1.5.5-2.1,1,0,0,0,0-.1,0-.4-.2-.8-.3-1.3-.3-.9,0-1.9.4-2.4,1.1-.2.3-.4.6-.6.9-.4,0-.9.1-1.3.3-.6.2-1.1.6-1.6,1-.3.2-.5.5-.7.7-.1.1-.2.2-.3.4-.1.2-.2.3-.3.5,0,0-.1,0-.2,0-.4,0-.7-.1-1.1-.3-2.9-3.2-3.6-23.7,2.9-22.5,0,0,.2,0,.3.1,2.2,0,5.8,3.4,8.3,9.1Z"/>
      <path class="st7" d="M380.5,107.4c5.7,1.9,3.7,13.3,2.3,17.6-.6,1.5-1.4,5.7-3.7,4.1-2.8-2.6-4.4,0-6.1-2.8-1-1.2-2.4.3-3.6-.4-1-.9-1.3-.3-2.2-.6-3.8.3,4-10.6,5-11.6,2.2-2.4,4.5-6.6,8.2-6.3Z"/>
      <path class="st2" d="M276.7,124.9c-2.9-5.7-5.8-11.5-10.6-16-.5-.5-.5-1.3,0-1.8,1.5-2,5.8,4.8,6.8,6,2.4,3.1,3.9,6.9,5.8,10.3.9,1.3-1.1,2.8-2,1.5h0ZM269.5,128.2c1.6.5,2.3-2,.7-2.4-1-.7-2.1-2.5-3.3-1.3-.5.5-.5,1.3,0,1.8.9.7,1.5,1.7,2.6,2h0ZM270.9,124.8c.6,2.1,4.2,1.2,1.4-2.9-.8-1.2-2-4.1-3.8-2.7-.6.6-.4,1.6.3,2.1.9,1.1,1.6,2.3,2.1,3.6h0ZM375.8,127.4c-1.9-1.2,1-3.8,2.2-2.2,1,1.3-1,2.9-2.2,2.2h0ZM371.4,125.2c.2,1.3,2.1,1.5,2.5.2,1.2-1.6,2.6-3.1,3.8-4.7,1-1.3-1-2.8-2-1.5-1.1,1.7-4.1,4-4.3,6h0ZM366.4,126.3c.8.4,1.7-.3,1.8-1.1.5-.9,1.1-1.8,1.7-2.7,1.5-2.2,3.3-4.4,5.2-6.6,1.7-2,3.6-3.9,5.2-5.9.4-.5.3-1.4-.2-1.8-1.3-.9-2.1.7-2.8,1.5-1.6,2.1-14.4,15-10.7,16.5Z"/>
      <path class="st3" d="M311.3,185.7c.1-.2.2-.4.2-.6,0,.2-.2.4-.2.6h0ZM338.6,172.7s0,0,0,0c0,0-.1,0-.2,0-1.1-.2-.9-1-.5-1.8.3-2,1.8-3.5,3.6-4.3,1.6-.8,3.4-1,5.1-.6.8.2,1.5.5,2.2.9.4.2.8.4,1.2.7.9.7,3.7,2.1,2.6,3.3,0,0,0,0,0,0-.2.4-.8.6-1.3.2-.5-.6-1.3-1-2-1.4-4.1-2.3-6.4.6-9.6,2.1.1.6-.4,1.2-1,1h0ZM295.6,172c0-.1,0-.3,0-.4-1.4-.8-2.9-1.6-4.5-1.8-1.2-.4-4.2,2.1-4.2,0-.5.4-1.1.8-1.5,1.3,0,.9-1.5,1-1.6,0,0-.3.2-.7.4-1,0-.1,0-.2.2-.3.5-.7,1.2-1.3,1.9-1.8,2.9-2.2,7.9-2.4,10.2.8.6.8,1.5,3.8,0,4-.5,0-.8-.4-.8-.8h0ZM295.9,188c.8-7.5,7.5-14.3,14.9-16.4,12.8-5.3,29.4,4.3,29.8,18.5-.2,11.4-11.9,18.9-22.5,18.6-11.2.3-24.6-8.7-22.3-20.7h0ZM312.2,193.3c0-.2,0-.5,0-.7-.2,0-.4,0-.5.1,0,0,.1.2.2.3.1.1.2.2.3.4Z"/>
      <path class="st14" d="M315.6,184.1c-5.1-3.4-5.8-7.9,1.7-7.1,1.1,0,3.9-1.3,4,.5,2.8.8,1.2,3.6-.5,4.7-1.4,1.2-3.3,3-5.2,1.8Z"/>
      <path class="st17" d="M317.1,184.2c-.7,0-1.4-.8-.9-1.4-1.3-.3-6.4-1.6-6-3.2.2-.4.7-.6,1-.4,1.8.9,3.7,1.9,5.7,2.1,2.3.5,4.3-2,5.5-1.4,1,1-.8,2-1.5,2.7-.3,1.5-2.5,1.8-3.8,1.6Z"/>
      <path class="st5" d="M271.5,190.6c-1.7,0-3.3-.6-5-.9-3.2-1.6-2.7-7.5.6-8.9,3.4-1.8,8.3-.7,10.9,1.9,3.7,4.5-1.9,8.8-6.5,7.9Z"/>
      <path class="st5" d="M363.8,191.9c-3.7-.4-7-4.5-4.5-7.9,3.1-4.6,11.9-5,14,.7,1.5,5.6-5,8.1-9.5,7.3Z"/>
    </g>
    <g>
      <path class="st10" d="M290.7,121.3c-.6-.1-1-.7-.8-1.3.3-1.1,1.8-1,2.7-1.3,3.2-.8,6.3-1.7,9.3-3,3.7-1,21.1-12.9,20.2-3.9,2.7-1.7,10.3-3.9,8.3,2,4.3.4,8.6.3,12.9.9,1.8.3,19.8,3.8,15.4,6.5-7.4-2.4-15-5.1-23-4.9-2.3-.5-9.5.9-7.3-3.3.5-.8-.2-1-.9-.8-1.9.4-3.6,1.2-5.3,2.1-1.1.7-3.7,2.8-3.8.2.4-1.1,1.6-1.9,1.5-3.2-.2-2.5-10.9,3.7-12.6,4.2-5.3,2.7-10.9,4.8-16.7,5.9Z"/>
      <path class="st10" d="M252.4,151.1c-.6-3.7-.4-7.8,1.5-11.2-.4-4.3-1.6-11.7,3.5-13.4-.8-17.7,4.1-51.6,24.5-23.5,2.6,3.6,4.6,7.6,6.8,11.4.6,1.7,4.6,6.2,2.5,7.3-.9.3-1.4-.4-1.5-1.2-.9-2-2-3.8-3.1-5.6-4.1-7.3-8.3-15.1-15.5-19.7-9.3-5-10.8,16.4-11.4,21.9-.3,2.9-.3,5.7-.1,8.6.1,1.2,0,3-1.5,3-2.4.1-2.4,4.7-2.4,6.5-.3,2,1.1,4.3,0,6.1-1.3,2.9-1.5,6.2-1,9.3.3,1.3-1.8,1.8-2.1.4Z"/>
      <path class="st10" d="M388.9,155.9c-.7-2.7-2.4-5.2-2.6-7.9.9-2.6,2.4-5.6.2-7.9,0-.3-.1-.5,0-.8.8-2.1,3-5.5,1-7.5-.7-.1-1.6-.4-1.7-1.2,1.4-7.9,3.2-16,1.9-24.1-.9-8.4-6.3-17.8-14.2-8.3-5.9,6-10.3,13.3-13.5,21-.8,1-.2,3.1-1.7,3.4-3.7-.2,3.2-11,4-12.9,2.3-4,5-7.8,8.1-11.3,8.5-10.8,16.4-7,19,5.4,1.7,8.6.6,17.5-1.4,25.9,4,1.5,2.3,6.9.7,9.7,2.3,2.7.7,6.2-.2,9.1.3,1.7,3.8,7.3,1.8,8-.5.2-1.2,0-1.4-.7Z"/>
      <path class="st10" d="M240.9,187.8c0,0-.2,0-.3-.1-.3-.2-.6-.3-1-.2-.2,0-.4-.1-.6-.2,0,0,0,0,0,0,0,0,0,0,0,0,0,0,0,0,0,0,0,0,0,0,0,0,0,0,0,0,0,0,.4-.7,1-1.3,2.1-1.6-3.1-2.6-7.3-7.6-3.9-11.6,1.2-1.3,3.3-.6,4.6-1.8,0,0,0,0,0,0,0,0,0,0,0,0-6.6-7.2-.8-7.7,4-12,3.7-3.6,5.6-8.8,9.7-12,1.1-.8,2.4,1,1.2,1.8-.9.6-1.6,1.5-2.3,2.4-3.1,4.1-5.6,9-10.1,11.7-8.7,3.8,3.6,6.4-1.8,10.2-2.3,1.2-5.4.3-4.2,4.2.7,3.2,4.4,4.5,5.5,7.4.1,1.8-1.8,1.4-2.6,2-.1,0-.2-.1-.3-.1Z"/>
      <path class="st10" d="M240.6,188.3c0-.1-.1-.2-.2-.3-.3-.4-.8-.6-1.2-.7,0,0,0,0,0,0,0,0,0,0,0,0,0,0,0,0,0,0,0,0,0,0,0,0,0,0,0,0,0,0,.9-2.8,4.5-2.2,2.5,0-.2.4-.3.8-.4,1.2-.2,0-.5-.2-.7-.3Z"/>
      <path class="st10" d="M399.1,188.3c-2,.1-4.7-1.3-2.6-3.3,1.9-1.6,3.9-3.3,4.7-5.8.8-2.6-1.4-3.3-3.5-3.4-1.8-.2-3.5-2.1-2.1-3.7,1.3-1.4,3.7-2.5,3.4-4.8-.5-1.7-2.6-2.3-3.7-3.6-1.7-1.6-3.4-3.3-5-4.9-.9-1.3-4.4-3.6-4.1-4.9,1.3-2.7,5.6,4,7,4.8,4.7,5.3,13,7.8,4.1,14.7,9.3.8,6.9,8.3,1.3,12.7,1.3.1,2.1.5,2.6,1.1-.5.3-1.1.6-1.6.9-.1,0-.2.1-.4.2,0,0,0,0,0,0Z"/>
      <path class="st10" d="M318.5,231.4c-24.9-.4-49-10.6-68.2-26.2-4.7-4.2-13.8-11.5-11-18.5,2.3-3.2,5.4-.7,2.8.5-6.2,4.5,12.3,18.9,16.1,21.3,17.8,12.6,39.4,20.6,61.3,20.7,25.5.3,51.1-9.3,70.1-26.2,2.2-2.1,15.9-14.3,8.8-14.9-1.7-2.6,3-2.2,3.8-.5,2.4,5.7-8.5,14.2-12.2,17.9-19.6,16.9-45.8,26.4-71.6,25.8Z"/>
      <path class="st10" d="M317.2,185.9c-20.7-11,9-13.5,7.7-7-.3,2.6-5.1,7.4-7.7,7h0ZM317.8,183.8c7.9-5,5.5-7.2-2.7-6-.9.3-2.9.4-3.1,1.5,1.6,1.8,3.8,3.1,5.8,4.5Z"/>
      <path class="st10" d="M308.8,194.7c-2.7-.4-5.1-1.9-6.7-4.1-.8-1.1.9-2.4,1.7-1.3,1.4,2,3.9,3.5,6.4,3.3,4,0,6-4.1,6.4-7.6.1-.3.3-.5.6-.6,3.2-.5.4,5.2-.4,6.5-1.6,2.8-4.9,4.1-8,3.7Z"/>
      <path class="st10" d="M321.8,194.2c-3.5-1.1-4.8-4.8-5.2-8.1-1-1.5.9-3,1.8-1.3.7,8.8,8,10.2,13.5,4,.8-1.1,2.6.2,1.7,1.3-2.8,3.3-7.4,5.7-11.8,4Z"/>
      <path class="st10" d="M283.2,172.9c-1.3-2.8,7.5-4.8,9.4-3.9,1.6.4,3,1.4,4.2,2.5.6,1-.7,2.1-1.6,1.5-5.6-5.5-10.4,1.8-12,0Z"/>
      <path class="st10" d="M338.2,173.3c-.9-.5-.6-2,.4-2,2.4-1.9,5.3-3.5,8.4-3.1,1.4.2,8.2,1.8,5.2,3.8-4.2-1.3-6.7-3-10.9,0-.9.5-1.9,1.9-3.1,1.3Z"/>
      <path class="st10" d="M285.7,145c0-1.2,4.2-4.2,5-2.6.7,1.5-1.5,1.9-2.4,2.6-.6.3-.8,1.1-1.6,1.1-.6,0-1.1-.5-1.1-1.1Z"/>
      <path class="st10" d="M348.7,144.5c-1.1-.8-4.7-.6-3-2.7,1.3-.6,2.9.3,4.1.8,1.2.7.1,2.6-1.1,1.8Z"/>
      <path class="st10" d="M278.3,124.7c-1.7-6.6-5.5-12.9-11.4-16.4-1.2-.7-.1-2.5,1.1-1.8,3,1.8,5.5,4.3,7.6,7.1,1.1,1.1,7.9,14.1,2.7,11.1Z"/>
      <path class="st10" d="M273.2,125.1c-1.5-2.3-3.2-4.5-5.2-6.3-.4-.4-.4-1.1,0-1.5,1.7-1.1,3.3,2.2,4.5,3.1.9,1.2,2.1,2.5,2.6,3.9,0,.9-1.2,1.4-1.8.8Z"/>
      <path class="st10" d="M269.7,127.2c-.9-.9-1.9-1.6-2.9-2.4-1.1-.8.2-2.5,1.3-1.7,1.2,1,3.1,1.8,3.6,3.4,0,1-1.3,1.4-1.9.7Z"/>
      <path class="st10" d="M366,125.9c-5.1-1.5,11.6-22.6,14.4-19.1.9,1.6-3.3,2.9-4.1,4.2-4,3.7-7.5,8.2-9.1,13.5.3.7-.4,1.6-1.1,1.4Z"/>
      <path class="st10" d="M369.9,125c-.3-1.6,6.8-10.2,8.2-8.1,1.2,1.3-3.4,3.9-4.1,5.3-.7.9-1.6,1.8-1.9,2.9,0,1.3-2.2,1.3-2.1,0Z"/>
      <path class="st10" d="M373.9,126c.1-1.2,3.5-3.7,4.3-2.2.6,1.2-.9,1.7-1.6,2.2-.9.8-2.4,1.8-2.7,0Z"/>
      <path class="st10" d="M379.6,128.2c0-.6.5-1.1,1.1-1.1s1.1.5,1.1,1.1-.5,1.1-1.1,1.1-1.1-.5-1.1-1.1Z"/>
      <path class="st10" d="M315.8,216.7c-1.8-.3-10.8-1.1-8.7-4.2.4-.3,1.1-.3,1.4.1,6,2.7,13.3,2.9,19.3,0,.5-.2,1.2,0,1.4.6.5,1.8-2.4,1.9-3.6,2.6-3.2,1.1-6.6,1.3-9.9.8Z"/>
      <path class="st10" d="M213.4,203.6c-1.4-1.9,12.3-4.4,14-5.3,6.7-1.9,13.5-3.6,20.3-5.1,6.8-1.5,13.6-2.8,20.5-3.8,1.9,0,11.8-2.5,11.7-.3,0,.6-.4,1.1-1,1.1-3,.2-5.9.6-8.9,1-9.2,1.4-18.3,3.1-27.3,5.3-8.2,1.9-16.3,4.2-24.3,6.6-1.5.1-4,2.1-5,.4Z"/>
      <path class="st10" d="M210.7,184.7c-.2-2,6.5-1.4,8-1.8,6.9-.6,13.7-1.1,20.6-1.1,8.1,0,16.2,1,24.3,1.6,1.4.4,4.2-.8,4.4,1.2-.2,2-6.1.6-7.6.7-7-.7-14-1.4-21-1.4-7.2,0-14.3.5-21.4,1.2-1.6-.2-7,1.7-7.2-.4Z"/>
      <path class="st10" d="M363.7,183.3c-1.1-2.7,9.3-2.9,11.1-3.5,16.1-2.8,32.3-2.3,48.5-1,1.4,0,1.3,2.2-.1,2.1-12-.7-24-1.9-36-.5-6.5.8-12.9,1.5-19.3,2.6-1.3,0-3.5,1.7-4.3.3Z"/>
      <path class="st10" d="M417,197.7c-15.1-4.5-30.6-8.1-46.4-7.9-1,0-2,0-3,0-1.4,0-1.3-2.2.1-2.1,9.2,0,18.5.5,27.5,2.4,7.6,1.6,15.1,3.4,22.5,5.7,1.3.4.6,2.5-.7,2Z"/>
      <path class="st10" d="M242.6,226.9c-2.5-4.8,6.3-13.3,8.8-17.3.9-.9,1.2-3.3,2.4-3.3,1.2,0,1.2,1.5.7,2.3-2.9,5.4-7.9,9.6-10.1,15.5-.7,1.1.7,2.2-.3,3.1-.5.4-1.1.3-1.5-.2Z"/>
      <path class="st10" d="M237.7,282.6c-3.1-3.8-3.8-8.7-3.7-13.5-3.3-4.4-.1-18.4,1.7-23.5-4.2-2.6,4.1-14.9,6.4-17.6,1.6-1.7,2.9-3.7,4.9-5,1.3-.5,2.1,1.4.8,2-5.1,5.1-10,11.4-11.2,18.7,2.6.2.7,3.4.4,4.9-.5,1.6-.9,3.2-1.2,4.7-.8,4.6-1.7,9.7-.5,14.3,1.5,1.1.6,3.5.9,5.1.1,1.6.4,3.2.9,4.7.5,1.5,1.3,2.9,2.3,4.1.9,1.1-.9,2.4-1.7,1.3Z"/>
      <path class="st10" d="M397.8,229.1c.5-7.4-5.7-12.5-9.3-18.2-.7-1.2-2-2.5-1.9-4,.3-1.1,2-1,2.1.2,3,5.5,7.6,9.8,10.2,15.5.4,1.4,2.1,7.4,0,7.5-.6,0-1.1-.5-1.1-1.1Z"/>
      <path class="st10" d="M403.5,245.6c-1.7-.5-.4-2.9-.8-4.2-.5-5.3-4-9.9-7.5-13.8-.9-.6-1.1-2.3.3-2.4,4.1,3,8.8,10.4,9.3,15.6-.1,1.4.8,4.7-1.3,4.8Z"/>
      <path class="st10" d="M397.3,288c-.5-.4-.4-1.2,0-1.6,2.2-2.6,4.3-5.4,5.5-8.6.8-2.3.9-4.8.6-7.2,1.2-3.8,1.8-7.8,1.3-11.8-.3-3.9-.9-7.8-2.6-11.4-.7-1.4-1.7-2.7-2.7-3.9-.6-1.2,1.4-2.1,2-.8,0-.1-.1-.2-.2-.3,5.8,6.4,7.2,20.2,4.2,28,.9,5.5-1.4,10.8-4.8,15.1-1,.9-2,3.7-3.5,2.5Z"/>
      <path class="st10" d="M310.8,242.5c-2.5,0,1.3-9.6,3.2-7.4,1,1-1.5,3.4-1.6,4.9-.4.9-.1,2.7-1.6,2.5Z"/>
      <path class="st10" d="M316.6,241.5c-1.6-.4-.3-4.4,1.3-3.5.6.4.6,1.1.3,1.7-.2.8-.4,2.1-1.6,1.8Z"/>
      <path class="st10" d="M327,240.4c0-1-.3-2-.6-3-.2-1.3,1.8-1.7,2.1-.4,0,0,0-.1,0-.2.3,1.3,1.6,3.9-.2,4.5-.6,0-1.1-.3-1.2-.9Z"/>
      <path class="st10" d="M334.2,237.4c-.2-1-1.7-2.4-.4-3.2,1.5-.7,1.9,1.4,2.4,2.4.5,1.3-1.4,2.1-2,.8Z"/>
      <path class="st10" d="M304.2,237.2c-1.5-1,1-4.5,2.3-2.9.5.6,0,1.3-.4,1.8-.4.7-1,1.7-1.9,1.1Z"/>
      <path class="st10" d="M245.3,238.6c-1.7-1.6,3.4-5,4.6-5.9.5-.3,1.2-.1,1.5.4.7,1.4-1.4,1.9-2.2,2.8-1.3.7-2.2,3.6-3.9,2.8Z"/>
      <path class="st10" d="M246.1,244.6c-.5-.3-.5-1-.2-1.5.8-.9,1.5-3.1,2.9-2.2,1.2,1.2-.8,2.4-1.3,3.5-.3.5-1.1.5-1.5.2Z"/>
      <path class="st10" d="M391.6,239c-.9-1.6-5.7-3.5-4.6-5.1,1.3-1.6,5,2.7,6.1,3.6,1,1-.5,2.5-1.5,1.5Z"/>
      <path class="st10" d="M388.3,229.6c-.7-.9-2.3-1.2-2.5-2.4.5-2.5,3.1,0,4,.9,1,1-.5,2.5-1.5,1.5Z"/>
      <path class="st10" d="M392.8,123.9c-1-.3-.8-1.3-.6-2.1.8-4.3,1-8.7.1-13.1,0-1-1.1-2.3.1-2.9,1.5-.5,1.8,1.6,2,2.7.6,1.9,1.3,16.2-1.7,15.4Z"/>
      <path class="st10" d="M396.2,125.3c-1.4-1.1.6-2.6.8-3.9.5-1,0-2.8,1.4-2.9,2.6-.2-.4,8.1-2.2,6.8Z"/>
      <path class="st10" d="M253.5,123.5c-1.1-1.1-1.3-10.9,1-10.5,1.9.5.2,3.8.4,5.3-.5,1.5,1.6,6.5-1.4,5.2Z"/>
      <path class="st10" d="M237.8,201.6c-1.1-2.5,10.8-4,12.7-4.6.6-.1,1.1.4,1.2.9.2,1.3-1.6,1.3-2.4,1.5-3,.6-6,1.4-8.9,2.3-.8.3-2.1,1.1-2.6-.1Z"/>
      <path class="st10" d="M316.3,221.6c-2.4-.2-1.8-3.5.2-2.1,1.3.3,2.6,0,3.8-.3.6-.1,1.2.2,1.3.7.3,2.1-4,1.8-5.4,1.7Z"/>
      <path class="st10" d="M410.1,264.2c-1.4-.3-.7-1.9-.7-2.8.2-2.2,0-4.4-.4-6.6-.3-1.4-.6-2.8-1.1-4.1-.2-.9-1.3-2.1-.2-2.8,1.1-.6,1.7.8,2,1.6,1,2.1,3.7,14.5.4,14.7Z"/>
      <path class="st10" d="M409,278.2c-1.2-.8.2-2.1,0-3.2.3-1.2-.8-3.7,1-3.9,2.1-.3,1.3,8.7-1.1,7.1Z"/>
    </g>
  </g>
  <g>
    <g>
      <path class="st13" d="M454.7,402.3c4.8.9,2.9,15.3.5,18.3,2.4,3.7-4.9,12.4-8.6,13.3-2.6.3-5.1-.1-7.7,0-1.9-.4-7.2,1.4-7.7-.9-2.6,0-1.5-2.8-.9-4.2.9-2.3,1.5-4.7,1.7-7.1,1.3-9.2-.5-18.9-4.3-27.3-.8-2.7-6.3-7.9-5-9.7,1.1-1.5,3.2-1.8,4.6-3,3.7-2.3,4.2-6.7,4.8-10.6,5.4-8.1,13.9,8.5,15.3,13.1,5.6-4.6,7.2,15.2,7.2,18.3h0ZM417.1,430.1c.3,1.2.8,3.1-.9,3.4,0,0-.1,0-.2,0-.2,0-.5.1-.7,0-2.3-.3-4.5-.5-6.8-.7-7.6-.4-15.3-1.1-22.9-1.2-19.6-.3-39,3.2-58.6,2.4-15.9.1-31.7-1-47.6-1.2-15.5-.3-31.1.2-46.6.6-3.3.2-6.8-.3-10.1,0-.8.1-1.3-.4-1.5-1-.6.3-1.3.3-1.8-.2-1.4-2.6,1.7-8.1,2.4-10.9,4.3-11.9,11.2-22.5,17.8-33.1,2.8-4.3,5.6-8.6,8-13.2,1.1-2.3,2.1-4.7,3-7.1-1.4-4.9-2.1-10-1.2-15.1,2.2-7.2,4.5-14.4,5.1-21.9,1.5-11.1.1-22.5,2.8-33.4,1.4-6.1,4.3-11.7,6.3-17.5,1.9-4,1.7-14.5,6.4-15.5,6.5-3.6,13.7-5.8,20.7-8.2,5.7-1.6,11.7-1.9,17.5-3,4.7-.9,8.6-3.9,13.2-5.1,2.7-.9,4.5,1.5,2.8,3.9,4.6-2.3,22.3-9.3,16.3,2.2,11.6-4.3,6.4,2.2,13.5,4.6,8.3,2.6,16.9,5.4,23.1,11.9,7.3,5.4,11.4,13.8,13.7,22.5,3.5,10.9,3.8,22.4,3.6,33.7,0,19,.3,26.6-6.9,43.3,0,.3.1.6.3.9,1.6,4.1,2.9,8.2,4.7,12.2,1.9,3.8,4.7,7.1,7.3,10.4,6.8,8.6,12,18.6,15.6,29,.7,2.4,1.2,4.8,1.7,7.3Z"/>
      <path class="st1" d="M381.4,411.1c.9,1.7,6.8,11.3,1.6,10-.1-.1-.2-.3-.3-.4,0,0-.2,0-.2-.1-.9-.5-1.8-.9-2.8-1.2-12.6-4.7-26.7.6-36.2,9.4.9,1.7-3.5,6.8-5.2,4.9,0,0,0,0,0,0-18,.8-36.1,0-54.1-.3-5-.6-9.1-4-13.8-5.5-5.6-1.9-11.3-3.1-17.1-4.2,0,0,0,0-.1,0-.5.3-1.2.2-1.7-.4-.9-2,1.8-6.5,2.5-8.6,2.8-6.2,6.1-12.2,10.4-17.5.5-.7,1.4-.7,1.9-.3,1.7.2,2.7,3.8,4.1,4.8,3.1,3.6,6.9,6.5,11.2,8.5,9,4.9,19.1,7,29.2,8,11.4,1.4,23.2,1.1,34.2-2.8,6.5-2.5,13.3-5.1,18.7-9.7,2.1-1.9,3.9-4,5.5-6.2.2-1.1,1.5-1.9,2.7-.5,3.9,3.4,6.9,7.8,9.7,12.2Z"/>
      <path class="st1" d="M277.4,405.7s0,0,0,0c0,0,0,.2-.1.3,0,0,0,0,0,0,0,0,0-.1,0-.2h0ZM367.8,319.1c2.1,1.9,1.5,5.4-1.8,5.1-3.2-.5-11.9-3.3-8.9-7.7,3.1-2.9,8.3,0,10.7,2.6h0ZM277.3,318c.1,2.5-7.2,5.7-9.3,5.9-2.2,0-3.7-2.5-2-4.2,1.2-1.4,2.9-2.4,4.6-3.3,2.2-.5,6.5-1.9,6.7,1.6h0ZM365.7,369.7c2.9,2.3,6.2,22,5,25.8-.8,2.4-1.8,4.9-3.5,6.9-1.1.9-4.1,4.4-6.1,5-1.2,1-2.3,1.9-2.9,2.3-12.6,7.5-32.2,13.2-46.8,11.2-8.2-1.3-16.4-2.9-24.1-6.3-1.7-.9-8.8-4.5-11.6-7.5-.3,0-.7,0-1-.3-4.8-4.5-11.4-9.4-13.2-15.9-1.7-17,14.3-31.7,24.8-43.3,6.7-7.6,11.6-16.2,15.6-25.5,1.1-2.5,2.2-5.1,3.1-7.8.6-1.2.8-3.8,2.2-4.1,1.8-7,2.9-14.1,3.7-21.2.6-5.3,1-10.8,1.3-16.2.3-1.3,0-5.1.7-7.1,0-2.2.1-4.5,0-5.3.1-2.6-.3-5.8,2-7.5,2.4-1.7,5.1-3,7.7-4.2,2.9-.4,1.7,3.1.8,4.6,2.4-1.3,5.7-3.7,5.5,1.1-.2,3.5-.2,7.1-.4,10.6-.4,3.7-.1,7.6-.4,11.4.4.8.6,1.9.5,3.6,0,.2,0,.4,0,.6.3.2.4.6.4,1,.3,9,1.6,18.1,3.3,27,.8,4.4,1.7,8.8,2.7,13.1.6-.1,1.2.1,1.5.9,4.8,9.1,10.4,17.8,16.5,26.1,4.5,6.8,9.6,13.3,12.4,21Z"/>
      <g>
        <path class="st8" d="M317.9,348.9c5.8-.6,17.9-2,16.9,6.9-.3,2.8-1.9,5.3-4.3,6.8-4,2.3-10.1,5-14.7,3.9-3.7-.7-7.7-2-10.4-4.8-2.5-2.6-3.7-7.3-.4-9.7,3.8-2.3,8.6-2.4,12.9-3.1Z"/>
        <path class="st19" d="M329.6,378.6c.3,7.2-7.5,20.4-15.9,18.1-6.2-2.1-7.5-9.7-7.1-15.4.2-1.4,0-3.4,1.5-4.1,2.7-3.8,20.4-3.7,21.5,1.4Z"/>
        <path class="st10" d="M334.1,353.9c1-.3,2,.6,1.9,1.6-1.7,4.9-6.9,7.6-11.7,8.7-.6.8-4.7,2.2-6.5,2.2s-.7,0-.8-.2c-2.1,0-4.1-.4-6-1.1-1.6-.7-9.6-3.9-6.8-6.2-.8-.5-1.9-1.8-2.4-3.1.2-.5.3-1,.5-1.6.2-.5.3-.9.5-1.4,0,0,0,0,0,0,1.8-.2,1.5,1.7,2.2,2.7,4.2,4.8,23.3,5.1,27.6.2.7-.6.8-1.8,1.8-2Z"/>
        <path class="st6" d="M310.9,354c-3.2.1-5.2-3.2-1.5-4.5,1.9-.4,4.7-2.1,6.3-.7,1.9-.1,5.7,0,5.2,2.7-1.5,2.9-7.2,2.3-10.1,2.4Z"/>
      </g>
      <path class="st0" d="M211.1,382.3c-9.6-2.8-4.3-14-2.9-20.7,1.4-7,.5-14.1.3-21.2-2.4-24.3,2.5-40.8,17.5-53.2,0,0,0,0,0,0,.3,0,.5,0,.8-.2,2.3-1.4,4.7-2.8,7.1-4.1,0,0-.1,0-.2,0,.5-.3,1.1-.6,1.6-.9,0,0-.1,0-.2,0,1.3-.8,2.7-1.5,4.1-2.2,2.1-.9,4.2-1.9,6.3-2.8,1.3-.6,2.6-1.1,3.9-1.8.7-.3,1.3-.7,2-1.1.4-.2.8-.5,1.2-.8,0,0,.2-.2.3-.2,0,0,.2,0,.2,0,.6-.3,1.3-.5,1.9-.8.7-.3,1.4-.6,2.1-.9.3,0,.6-.1.9-.3.1,0,.2-.1.3-.2.2-.1.5-.3.7-.4.6-.3,1.1-.7,1.6-1,.9-.5,1.7-1.1,2.6-1.6,0,0,.2,0,.2-.1.3-.2.7-.3.9-.6,0,0,0,0,0,0,.2,0,.3-.2.5-.3.3,0,.6-.1.9-.2.6-1.4,2.8-1,2.8.6-.4,2.8,0,5.8-.7,8.6-1.8,6.2-8,10-9.7,16.3-2.7,7.7-3.3,16-3.3,24.1.3,13.7-1.8,27.5-8.2,39.8-6.2,12.4-17.6,26.5-32.5,26.5-1,0-2.1,0-3.1-.2Z"/>
      <path class="st0" d="M432.8,364.5c-.3,3.6,4.8,15.2,2.6,16.6.4,3.6-2.1,5-5.3,4.6-21.1-2.2-37.2-21.4-40.8-41.5-2.1-7.8-1.6-15.9-1.8-23.9-.3-5.7-1-11.4-2-17-1-5.5-3.1-10.6-6.1-15.2-4.3-6.6-8.1-10.6-7.3-19.1-1.4-2,2.1-3.4,3-1.4,6.6,5.4,13.6,10.2,21.4,13.6,3.6,1.8,7.3,3.4,10.9,5.1,4.8,2.7,9.2,6.3,13.1,10.1,8.8,8.9,11.8,21.7,13.5,33.7.9,11.5-1.6,22.9-1.1,34.4Z"/>
      <path class="st18" d="M396.4,348s0,0,0,0c.1.3.2.7.3,1-.1-.4-.2-.7-.3-1.1h0Z"/>
      <path class="st1" d="M347.8,457.6c-5.4-.7-9.5-5.7-9.1-11.1-.3-5.1.7-10.5,3.8-14.7,0-1.7,2-2.9,2.9-4.3,4.1-4.7,9.2-8.6,15.2-10.4,6.3-2.1,12.9-1.2,19.2.4,2.5.5,5,1,7.3,2.2,4.3,2.5,8,6,11.5,9.5,1.1,1.2,2.6,2.6,2.7,4.4-.4,3.3-2,6.5-4.1,9-4.5,4.6-10,8.2-15.7,11-5.6,3.2-12.6,5.3-18.7,1.9-2.8,1.3-5.8,2.3-8.9,2.1-1.1,0-2.2-.4-3.2-.6-.8.3-1.6.7-2.5.7-.1,0-.2,0-.3,0Z"/>
      <path class="st1" d="M248.8,457.8c-7-.8-11.5-7-15.7-12-2.4-3.4-6-7.4-4.4-11.9.6-1.3.7-3.4,2.2-3.9,6-9.4,13.5-12.7,24.4-12.9,8,0,16.4,1.4,22.7,6.7,4.1,3.4,6.7,8.4,8.6,13.3,1.6,5.1.5,11.5-3.6,15.2-2.7,2.4-6.2,2.3-9.2.6-1.4.7-2.4,2.1-3.8,2.9-3.9,2.2-8.5,1.3-12.5.2-2.5.7-4.8,2-7.3,2-.5,0-1,0-1.4-.1Z"/>
    </g>
    <g>
      <path class="st10" d="M211.8,384c-15.5-2.4-3.2-19-3.7-28.5.6-12.6-3.5-25.2-.7-37.8,2.4-13.7,10.4-26.6,22.2-34.1,9.5-5.4,19.9-9,29.7-13.8.5-.2,1-.4,1.5-.6-.2.7,0,1.5.5,2,0,0,0,0,0,0-6.3,2.7-12.3,5.8-18.6,8.4-19.9,6.6-33.3,24.6-34.1,45.6-.9,11.5,3,22.6,1.2,34.1-.7,6-3.7,11.6-3.9,17.6,1.9,8.1,13.1,5,18.4,2.2,8.3-4.1,15.1-10.8,19.8-18.7,6.3-11.6,9.2-25,10.3-38.1.8-12-.9-24.7,5-35.6.9-1.6,4.4-7.8,6.4-6.4,1.1,1.4-1.2,2.3-1.9,3.4-10.3,13-5.5,30.6-8.1,45.9-2.4,13.9-5.7,28.6-15.3,39.6-6.9,7.7-16.7,15.1-27.4,15.1-.4,0-.9,0-1.3,0Z"/>
      <path class="st10" d="M381.8,274c-9.4-6.8-19.8-12.2-31.1-15-4.6-1.2.6-4.5-4-4.2-2,0-4.2.5-6,1.1-1,.3-2.7,1-3-.5.3-1.7,2.3-2.6,2.9-4.2,2.6-4.4-6.3-1-8.1-.7-2.4.8-4.8,1.7-7,2.9-1,.4-2.2,1.8-3.1.7-.7-1.6,1.9-2.8,1.7-4.5,0,0,0,0,0,0,0,0-.1,0-.1,0-3.9.8-7.1,3.3-10.9,4.4-9.1,1.7-18.4,2.4-27.3,5.4-6.7,2.1-12.9,5.3-19.1,8.7-2.3,1-4.4,2.8-6.7,3.8-1.1,0-1.4-1.6-.5-2,8.4-5.3,17.3-10,26.9-12.9,8.6-2.8,17.6-3.4,26.4-5.1,3.3-.6,14.2-8.8,13.2-1,4.4-2.3,22.6-8.4,15.7,2.7,3.1-.8,10.5-2,9,3.4,4.6,1.6,9.5,2.5,13.9,4.7,1.2.5,24.9,12.5,17.6,12.5-.1,0-.3,0-.4,0Z"/>
      <path class="st10" d="M429,386.9c-12.1-.8-25.1-11.4-31.9-21-10.1-14.2-11.5-32.1-11.5-48.9-.3-11.9-2.5-25.4-10.8-34.3-.4-.4-.4-1.1,0-1.5,1.6-1.3,4.1,3.2,5,4.4,2.9,4.8,4.6,9.8,6.1,15.1,2.5,10.5,1.6,21.3,2.4,32,.5,7.9,2.3,15.7,5.5,23,3.7,8.4,9.6,15.8,17,21.1,6.2,4.1,16.9,11.6,24,6.1,2.5-3.4-.8-7.4-1.5-10.9-1.4-4.6-1.8-9.4-1.6-14.2.5-7.9,2-15.8,1.7-23.7-.4-10.8-2.7-22-8.9-31-7.4-11-18.2-15.7-29.7-21.2-5-2.7-10.1-5.5-14.6-9-.7-1,.7-2.3,1.6-1.4,1.8,1.3,3.8,2.5,5.7,3.7,6.7,4.3,14,7.4,21.1,11,10.7,5.6,19.6,15.2,23.3,26.8,3.2,9.1,4.1,18.9,3.5,28.4-.3,6.5-1.7,12.9-1.6,19.4,0,4.6.9,9.1,2.5,13.3,3.3,6.7,1.2,12.7-6.7,12.7-.2,0-.3,0-.5,0Z"/>
      <path class="st10" d="M317.6,422c-26.6-1.4-45.8-10.2-59-34-4.5-7.5-7.8-15.8-9.8-24.3-.6-2.6-1.1-5.2-1.4-7.8,0-.6.5-1.1,1.1-1.1,1.6.2,1.1,2.5,1.5,3.7,3,17.3,11.6,34,24.3,46.2,13.5,11.8,32.4,15.8,50,15,37.8-2.2,58.5-29.4,66.1-64.3-.1-1.7,2.1-2.6,2.3-.5-1.1,5.6-2.6,11.1-4.6,16.4-2.2,5.7-4.6,11.2-7.7,16.4-12.4,22.6-35.7,34.4-60.9,34.4-.6,0-1.2,0-1.7,0Z"/>
      <path class="st10" d="M315.6,373.4c-.1-1-.2-2-.2-3,0-.9,0-1.8.2-2.6-3.3-1.4-6.8-2-9.8-3.8-6.3-4-6.6-11.6,1-14.3,5.3-2.1,11.1-2.1,16.7-2,6.8-.1,14.7,1.8,12.7,10.5-1.5,4.4-6.1,6.6-10.3,7.9-2.6,1.1-5.8.7-8.2,2-.9,1.7,1,5.7-.9,6.2,0,0,0,0-.1,0-.5,0-1-.4-1.1-.9h0ZM305.6,352.6c-4.2,2.1-2.2,7.2,1,9.3,3,1.8,6.5,2.5,9.7,3.8.2,0,.4.2.5.3,4.5-1.5,9.7-1.5,13.7-4.4,4.9-2.6,5.2-9.9-.8-11.2-3.4-.4-6.9-.7-10.4-.7-4.8,0-9.6.7-13.9,3Z"/>
      <path class="st10" d="M334.3,379.1c-5.4-.3-10.4-3-15.7-3.8-5.6-.2-10.6,3.1-16.2,3.6-7.6,1.1-14.3-2.5-17.5-9.4-.6-.7-.5-1.9.5-2,1.6,0,2.9,4.3,4.3,5.4,5.3,6,14.2,4.2,20.9,1.7,5.7-2.5,10.9-1,16.1.6,4.5,1.3,9,2.7,14.1,1.4,2.9-.6,5.7-1.9,7.6-4.2.9-.7,1.2-2.9,2.7-2.2.5.3.7,1,.4,1.5-2.9,5.4-9.2,7.5-15.1,7.5-.7,0-1.4,0-2,0Z"/>
      <path class="st10" d="M314.6,398.7c-9.8-1.3-9.9-13.4-9-21,.2-1.3,2.2-1.2,2.2.1-.1.5-.3,1.3-.3,1.7-2.6,23.7,17.7,21.6,20.3,1.1,0-1.1,0-2.2,0-3.2-.2-1.4,1.9-1.7,2.1-.3.1,1,.1,2,.1,2.9-.5,7.9-5.5,18.7-14.5,18.7-.3,0-.6,0-.9,0Z"/>
      <path class="st10" d="M315.7,384.5c.3-3.3.6-6.5,1.3-9.7.3-1.2,2.1-1,2.1.3-.6,3.1-1,6.3-1.3,9.5,0,.7-.5,1-1.1,1-.5,0-1.1-.3-1.1-1Z"/>
      <path class="st10" d="M350.1,371.8c-.9-.4-.6-1.4-.3-2.1,0-.7.3-1.4,1.1-1.4,1.8,0,1,3.6-.4,3.6-.1,0-.3,0-.4,0Z"/>
      <path class="st10" d="M271.4,338.6c2.9,1.5,2.2,7-1.3,7.2-3.7-.4-2.3-8.2,1.3-7.2Z"/>
      <path class="st10" d="M361.9,345.5c-3.2-1.6-.7-9,2.8-7,2,1.6.6,7.1-2.1,7.1-.2,0-.5,0-.7-.1Z"/>
      <path class="st10" d="M262,392c-3.2-13.2,6.2-26.2,14.7-35.5,8.2-9.3,17.1-18.3,22.5-29.6,9.6-19.6,11.9-41.9,12.9-63.4.2-3.4-.1-6.9.3-10.2.2-.5.8-.8,1.4-.6,1.3.6.3,4.1.6,5.4-.7,27.8-3.4,57.5-19.8,80.8-7.2,10.2-16.7,18.3-23.9,28.5-3.8,5.6-6.6,12-7.1,18.8,0,1.6-.1,3.2.2,4.8.1.7-.5,1.2-1.1,1.2s-.4,0-.6-.2Z"/>
      <path class="st10" d="M368.4,401.3c-1.4-.6,1.1-4.3,1-5.7,1.4-7.2.2-14.7-2.2-21.5-4.4-14.3-16-24.5-24.1-36.6-14.9-22.9-16.4-51.4-15.7-77.9.1-3,.3-6.1.3-9.1,0-.6.5-1.1,1.1-1.1,2.1-.3.5,7.9.8,9.4-.7,23.8.4,48.6,11.1,70.3,8.7,17,25.3,28.8,29.8,48.1,1.5,5.4,2.1,11.2,1.4,16.8-.4,1.7-1,7.3-3,7.3s-.3,0-.5,0Z"/>
      <path class="st10" d="M345.1,458.4c-7.7-3.1-8.8-9.3-7.6-16.8,2.2-11.4,11.6-21,22.6-24.5,8.6-2.9,18.2-.8,26.5,2.2,4.1,1.8,8,4.3,11.2,7.4,1.1,1.2,7.9,7.7,4.4,8.2-1,0-2.9-3.8-4-4.6-3.9-4.4-9-7.8-14.5-9.8-12.2-4.1-24.4-4-34.3,5.1-5.3,4.7-9.5,11.2-10.1,18.4-.5,5.9.7,9.9,6.4,12.3.8.2,1.6.3,2.4.2,1.3-.4,1.9,1.7.6,2.1-.5.1-.9.2-1.4.2-.7,0-1.4-.1-2.1-.3Z"/>
      <path class="st10" d="M367.9,458.9c-7.9-1-9-11.4-4.8-16.8.7-1,1.5-1.9,2.4-2.7,1-1,2.5.5,1.5,1.5-.4.3-.7.7-1.1,1.1-4.4,4.1-4.5,14.5,3,14.9,10.1,0,29.5-11.7,31.6-21.9-.4-2.2,1.7-3.1,2.1-1.1.2,11.2-22.1,25.2-33.3,25.2-.5,0-.9,0-1.4,0Z"/>
      <path class="st10" d="M351.8,458.7c-6-1.8-7.4-9.8-5.2-15,.7-1.3,1.5-4.7,3.4-3.7,1.1,1-.5,2.1-.8,3.2-.6,1.1-1,2.3-1.3,3.6-1,8.8,4,11.9,12,9,1.4-.2,3.9-3,4.5-.5-1.2,2.4-6.8,3.6-10.5,3.6-.8,0-1.6,0-2.1-.2Z"/>
      <path class="st10" d="M222.1,418.1c4.2-10.7,9.6-20.8,15.9-30.4,4-6.2,8.6-12.2,11.5-19.1.5-2.8,3.5-1.4,1.5,2-6.2,12.1-15.2,22.7-21.1,35-4.2,8.5-7.7,17.3-10.5,26.4-.2.7-.4,1.5-.6,2.3-.5,0-1.1,0-1.6,0-.3,0-.5,0-.8,0,1.5-5.9,5-14.6,5.6-16.4Z"/>
      <path class="st10" d="M416.8,433.6c-1.9-11.6-7.3-22.2-13.5-32.1-5.5-8.9-12.3-16.9-16.5-26.5-.5-1.1-1.6-3.6.5-3.7,1,.1.8,1.2,1.1,1.9,2.2,5.9,6,10.9,9.4,16.1,7.7,11.2,15.4,22.7,19.2,35.9.3,1.8,3.2,8.7.9,9.1,0,0,0,0-.1,0-.5,0-1-.4-1.1-.9Z"/>
      <path class="st10" d="M428.7,433.8c-1.4-.3-.8-1.8-.4-2.6.9-2.3,1.7-4.7,2.3-7.2,2.1-13-.4-27.5-8.7-37.9-.6-.8-2-1.6-1.1-2.7.4-.4,1.1-.4,1.5,0,11.4,12.5,14.4,34.2,7.6,49.6-.1.5-.6.8-1,.8s0,0-.1,0Z"/>
      <path class="st10" d="M447.1,433.4c-.7-1.6,1.9-2.1,2.7-3.1,2.4-2.5,6.6-6.6,4.2-10.2-.2-1.4,1-2.8,1.3-4.1,1.2-3.7,2.7-8.4.5-12-5.6,2.1,0-13.7-6.8-20.6,0,1.3-.9,3.7-2.4,2-.8-2.2-1.5-4.5-2.5-6.6-1.8-3.7-5.1-6.5-8.4-8.9-.8-.6-1.8-.9-2.4-1.6-.4-.7.1-1.6.9-1.6,6.1,2.9,11.3,8.3,13.4,14.9,1.7-1.7,3.6.9,4.4,2.3,3.3,5.4,3,12,3.2,18.2,1.7-.5,2.9,1.3,3.2,2.7,1.5,5-.3,10.3-2.3,14.9,3.4,3.5-4.9,14.3-8.2,14.3-.4,0-.7-.1-.9-.4Z"/>
      <path class="st10" d="M269.8,345.7c-4-.9-2.4-7.7,1.5-7,3.3.9,2.8,7.2-.5,7.2-.3,0-.6,0-1-.2h0ZM271,341.4c-.2.2-.4.3-.7.3-.4.5-.5,1.3-.1,1.8,1.1,0,1.4-1.5.9-2.2,0,0,0,0-.1.1Z"/>
      <path class="st10" d="M364.2,338c4.2,1,3.1,7.5-1,7.7-4.7-.3-3.3-8.2,1-7.7h0ZM363.3,341.2c-.4.5-1,1.9,0,2.1.4-.5.3-1.5,1-1.7,0-.3,0-.7-.2-1-.2.3-.5.6-.9.6Z"/>
      <path class="st10" d="M362.5,345.7c-2.6-.8-1.8-5.7.7-6,1.5,0,1.8,2.2.2,2.2-.3.4-.3.9-.3,1.4.3-1.5,2.5-1,2.1.4-.3,1-1.1,2.1-2.2,2.1s-.3,0-.5,0Z"/>
      <path class="st10" d="M266.8,325s0,0,0,0c-9.7-1.5,3.7-14.7,10.6-10.8,4.5,2.5.4,6.7-2.7,8.2-1.7.8-5.1,2.8-7.2,2.8-.3,0-.5,0-.7,0h0ZM265.9,322.7c.2.1.4.2.7.2.3,0,.5,0,.7.3,20.9-6.7,2.9-12.3-1.7-1,0,.2.2.4.4.5Z"/>
      <path class="st10" d="M363.1,324.5c-3.2-.6-7-2-8.4-5.2-.7-1.6,0-4.1,1.9-4.5,4.7-2.6,11.3.9,13.7,4.5,1.8,2.7,1.2,5.4-4.6,5.4-.8,0-1.7,0-2.6-.2h0ZM357.4,316.6c-3,4.1,6.3,6.4,9.2,6,6.8-.4-1.8-6.6-6.9-6.6-.9,0-1.7.2-2.3.6Z"/>
      <path class="st10" d="M273.8,453.1c.7-.7,1.5-.2,2.5.3,1.6.8,3.9,1.5,7.5-2.3,4.7-5.4,2.2-13.2-.4-19-2.4-4.8-6.3-8.5-11-10.9,0,0,0,0,.1,0-18-7.2-35.8-3.7-44.3,14.7-3.7.3.6-5.3,1.3-6.6,4.9-7.8,13.5-12.8,22.7-13.4,9.3-.7,19.7,1,26.9,7.2,9.5,7.4,15.7,30.7-.9,33-1.4,0-5.3-1-4.3-3Z"/>
      <path class="st10" d="M249.2,459.9c-8.2-.9-18.3-14.2-21.6-21.4-.7-1.3-1.1-5.3,1.4-4.2.9.8-.2,2,.5,3,2.9,6.8,11,17.1,17.9,20.1,9.6,2.9,12.2-7.9,7.9-14.6-.3-.5,0-1.2.6-1.4,2-.8,3.3,5.6,3.7,7.1.8,5.7-3.2,11.6-9,11.6-.4,0-.8,0-1.2,0Z"/>
      <path class="st10" d="M263,458.6c-2.2-.4-5.4-.8-6.6-2.9.3-2.7,2.8,0,4.1.2,3.7,1.2,9.2,1,11.2-2.9,1.9-4,.8-8.7-.9-12.6-.6-1.3,1.4-2.1,2-.8,4.1,8.4,2.4,19.2-7.9,19.2-.6,0-1.2,0-1.9-.1Z"/>
      <path class="st10" d="M445.8,402.7c-1.5-.5-.4-2.2-.4-3.3,0-1.6,0-3.3,0-4.9-.8-3.5,2-3.8,2-1.7,0,1.9,1.3,10.2-1.6,9.9Z"/>
      <path class="st10" d="M447.7,408.9c-1.5-.8.1-2.7.2-3.9.2-.8,0-2,1.2-2,1.6.1,1,2,.7,3-.4,1.1-.4,3.5-2.1,3Z"/>
      <path class="st10" d="M425.8,411.9c-.5-3.9-1.1-7.9-2.7-11.5-.2-1.6-3.9-5.1-1.2-5.6,3.9,2.9,5.2,12.1,5.9,16.9.2,1.4-1.9,1.7-2.1.3Z"/>
      <path class="st10" d="M426.3,421.9c-1-.1-1-1.2-.8-2,.2-1.1-.4-3,1.1-3.1,1.9.3.8,2.9.9,4.2,0,.6-.6,1-1.2.9Z"/>
      <path class="st10" d="M216.7,421.6c-2.4-.6,2.5-9.3,3.1-10.9.9-1.2,1.5-4.6,3.4-3.9.5.3.7,1,.4,1.5-2.1,3.3-3.5,6.6-4.8,10.2-.6,1-.4,3.4-2.1,3.1Z"/>
      <path class="st10" d="M226.1,401.4c-1.5-.7.1-3.9,1.6-3.1,1.3.7-.3,3.7-1.6,3.1Z"/>
      <path class="st10" d="M258.7,291.4c-2.1-1.3,5.8-8,6.1-4.5-.2,1.3-2,1.2-2.7,2.3-1.1.6-1.8,3.1-3.4,2.2Z"/>
      <path class="st10" d="M378.8,290.8c-.8-1.6-6.3-3.6-4.7-5.3,1.4-1.2,5.1,2.8,6.2,3.8,1,1-.5,2.5-1.5,1.5Z"/>
      <path class="st10" d="M437,322c-.9-3.1-.6-6.6-1.7-9.7-1.3-4.8-3.8-9.3-7.1-13-.7-1.2-3.2-2.2-2.4-3.8.3-.4,1.1-.6,1.5-.2,4.9,4.6,8.5,10.5,10.1,16.9.2,1.5,3.1,12-.5,9.7Z"/>
      <path class="st10" d="M437.1,329.2c.2-1.2-.6-3.4,1.1-3.6.6,0,1.1.5,1.1,1.1-.2,1.1.6,3.4-1.1,3.6-.6,0-1.1-.5-1.1-1.1Z"/>
      <path class="st10" d="M308.3,346.3c-1.5-3.9,12.4-2.7,14.6-2.4,1.4.2,1.1,2.3-.3,2.1-4.1-.5-8.4-.7-12.4.3-.6.3-1.4.7-1.9,0Z"/>
      <path class="st10" d="M284.5,369.6c-.5-.2-.8-.9-.6-1.4.6-.9.8-2.5,2-2.6.9,0,1.4,1.2.8,1.8-.6.9-.8,2.7-2.2,2.2Z"/>
      <path class="st10" d="M351.8,371.4c-1.3-1.1-3-3.5-1.8-5.1,1.8-1,1.6,1.2,2.1,2.2.3.9,2,1.5,1.1,2.7-.4.5-1,.6-1.5.2Z"/>
      <path class="st10" d="M314.9,403.5c-2,.3-2.9-2.3-.6-2.2,2.2.3,4.6,0,6.5-1.3.8-.5,1.8.3,1.6,1.2-1.6,2.1-4.9,2.4-7.4,2.4Z"/>
      <path class="st10" d="M281.4,316.2c-1-.1-1-1.2-.8-2,0-.9.2-2.2,1.4-1.9,1.3.3,1,4.2-.5,3.9Z"/>
      <path class="st10" d="M351.1,316.2c0-1.1-.3-3.1,1.2-3.2.6,0,1.1.5,1.1,1.1-.1.6-.2,1.2-.1,1.9.2,1.4-1.9,1.7-2.1.3Z"/>
      <path class="st10" d="M209,361.4c-.5-.2-.8-.9-.6-1.4,1.4-2.8,2.7-5.6,3.3-8.6.6-2,.2-4.2,1-6,.6-.7,1.9-.2,1.8.8-.2,4.2-1.1,8.4-3,12.2-.7,1-.9,3.5-2.6,3.1Z"/>
    </g>
  </g>
  <g>
    <path class="st1" d="M299.8,241.8c3.1,3.8,4.4,8.9,2.8,13.6-1.5,4.8-7.2,8.6-11.8,5.2-2,5.7-9.8,9.1-14,3.8-1.5,2.2-4.1,4.3-6.8,4.2-6.8-1.3-8.2-9.6-8.7-15.4-.1-5.6,2.1-11,6.4-14.6,9-8.7,24.8-7,32,3.2Z"/>
    <path class="st1" d="M382,248.6c1.2,4.8,0,10.7-2.4,15.1-2.1,3.3-5.9,6.4-10,5.3-2.7-.9-4.8-3.4-5.8-6-3.9,1.8-9.6.8-11-3.8-5,2.1-11.2-.4-10.9-6.4.1-2.5.5-6.6,2.5-8.2.8-1.6,1.6-3.7,3.5-4.2,4.2-3.6,10.6-6.5,16.2-5.9,3.3.5,6.3,2.1,9.3,3.5,4,2.4,7.1,6.3,8.5,10.8Z"/>
    <g>
      <path class="st10" d="M281.7,268.5c-4.1-.3-8.5-5.4-8-9.3,1.8-1.6,2.1,1.5,2.7,2.6,3.7,8.2,14,4.4,13.1-4,3.5-5.6,3.8,11.8-7.8,10.8Z"/>
      <path class="st10" d="M269.7,269.6c-7.1-1-9.9-9.2-9.8-15.5.8-16.2,17.2-26.3,32-19.3,4.6,2.1,8.9,5.2,11,9.9,2.2,5.2,2.2,12.4-2.3,16.4-3,2.9-9.5,3.5-11.2-1.1-.4-1,0-2.8,1.4-2.3.5.2.8.8.6,1.3,1.4,4.1,7.5,1.9,9.1-1,6.2-11.3-4.9-22-15.9-23.1-15.9-3.4-29.8,18.4-18.5,30.8,7.6,5.7,8.8-3.4,10.8-2.4.5.2.8.9.6,1.4-1.3,3-4.4,5.3-7.8,4.9Z"/>
      <path class="st10" d="M358.4,265.4c-4-.5-6.9-4.4-6.4-8.3,0-1.1-.3-3.3,1.5-3,1.6.6.2,3.9.8,5.3.6,2.9,4.1,4.7,6.8,3.6,1.6-.6,2.9-1.8,3.8-3.3.7-1.2,2.6-.1,1.8,1.1-1.7,2.9-4.9,5.1-8.3,4.6Z"/>
      <path class="st10" d="M371.7,270.6c-3.3-.6-7.4-2.4-8.1-6.1-.1-1-.5-2.9.9-2.9,1.4,0,.9,1.7,1.2,2.6.8,3,5,4.6,7.9,4.2,4.5-1.2,6.4-6.2,7.4-10.3,1.8-8.3-2.7-17.6-10.8-20.5-8.7-3.1-19.6-.3-24.7,7.8-2.2,3.5-4.4,9-.7,12.3,4.3,3.6,7.2-1,8.4.8.7,1.7-2.1,2.3-3.3,2.6-2.8.5-5.8-.6-7.5-2.8-5.8-8.3,4.1-20.2,12.3-22.6,12.1-4.7,27,2.1,28.6,15.6,1,7.6-2.3,19.5-11.6,19.3Z"/>
      <path class="st10" d="M270,266.1c-.5-.5-.9-1.1-1.2-1.7-.5-1.5,1.7-2,2.1-.6.5.7,1.4,1.5.6,2.3-.4.4-1.1.4-1.5,0Z"/>
      <path class="st10" d="M283,264.7c-.9-.5-1-1.8-1.3-2.7-.3-.7,0-1.7,1-1.7,1.2,0,1.1,1.4,1.4,2.2,0,.3.2.6.3.8.4.8-.6,1.8-1.4,1.4Z"/>
      <path class="st10" d="M295.1,258c-.2-.9-.2-2.2,1-2.2,1.1,0,1.1,1.1,1.2,1.9.2,1.4-1.9,1.7-2.1.3Z"/>
      <path class="st10" d="M346.2,256.7c-1.3-.2-.9-1.7-.8-2.6,0-.7.4-1.4,1.2-1.4.8,0,1.3.9.9,1.6-.2.9,0,2.6-1.4,2.4Z"/>
      <path class="st10" d="M358.3,260.9c-1.4-.5-.5-2.1-.2-3,.2-.5.9-.8,1.4-.6.8.3.7,1.3.3,1.9-.2.8-.5,1.9-1.6,1.6Z"/>
      <path class="st10" d="M370.4,266.2c-.9-.7,0-1.7.4-2.4.4-.8,1.3-1.4,2-.7.5.5.3,1.2,0,1.6-.5.8-1.3,2.2-2.4,1.4Z"/>
    </g>
  </g>
  <g>
    <path class="st15" d="M181.7,405.4c.9,7.7.8,15.9-2.1,23.2-9.1,19.6-31.6,29.1-52.3,29.1-10.8-.4-21.7-.6-32.1-3.7-5.3-1.3-10.5-3.2-14.8-6.8-5.3-4.2-11.1-8.5-13.8-14.9-2.8-7.5-3.4-15.7-2.2-23.6-.2-.3-.3-.6-.2-1,.5-2.8,1.1-5.6,2-8.3.5-1.4,1.8-4.4,3.6-3.9,4.9-2,10.3-1.6,15.4-1.2,10.6.6,20.5,5.7,31.1,6.5,13.3,1.3,25-7.6,38.3-6.2,4.8.2,9.4,1.4,14.2,1.1,12.2-1.5,11.1-4.3,12.9,9.5Z"/>
    <g>
      <path class="st13" d="M158.1,416.8c.9,2.3-2.3,2.1-2.6,4-.2,3.9-3,2.4-3.7,5.4-.4,2.3-.2,4.8-1.3,7-.9,1.5-1.9,2.8-2.4,4.5-.8,1.7-1.3,7.5-3.6,7.5-2.3-.2-1.4-2.9-1.4-4.4.2-2.2.5-4.4,0-6.6-1.1-6.9-6.4-9.5-12-5-3.8,2.2-8.2,2.7-12.5,3.5-.4,2,2,4.8,0,6.2-2.3,1.4-4.8-4.3-6.6-5.6-1-.9-2.3-1.2-3.5-1.7-2.5-1.2-5.2-2.9-6.2-5.6-3.6-3.1,5.1-6,7.2-6.9,1.4-2.8,6.4-11.1,9.6-6.3,1.8-.9,3.9-1,5.1.9,3-.2,4.9,0,5.9,3.3,1.6,1.6,2.3,3.8,1.9,6,2.3,2.7,4.6-2,5.9-3.5.9-1.1,2.1-2,3.3-2.7,4.3-2.3,13.3-4.9,16.7,0Z"/>
      <path class="st0" d="M112.9,432.4c-1.3,0-4.5,0-3.4-2.1-2.2-.5-4.5-1.2-6.3-2.6-1-1-3.8-2.7-2.1-4.1,1.4-.8,2.5,2.1,3.9,2.6,3,1.9,6.7,2.3,10.2,2.6,4.1.2,8.3-.2,12-2,1.7-.5,4-4.1,5.6-1.9,0,.3,0,.5,0,.8.2.2.4.5.4.9,0,.8-.6,1.2-1.3,1.1-2.5,3-9.5,4.2-14.6,4.6,1.4,1,3.7,6.4.8,6.6-1.8-.4,0-2.6-2.4-5.2-.2-.5,0-1,.4-1.3-1.3,0-2.4,0-3.2,0h0ZM156.1,418.8c-2-2.1-9.8,1-11.8,2.6-2.7,2.1-5.7,4.2-9.3,4-.5,0-1,0-1.4.4-1.8,2.9,4.1,1.8,5.5,1.4.5.6,1.4.8,1.9,1.3,1.1,1.1,1.8,2.7,2.1,4.2.8,3.8-.2,7.7.2,11.5,1.6,2.4,3.4-1.4,3.7-2.9.3-1.5.3-3,.9-4.5,2-4.7,4.1-3.6,3.3-9.6,0-2.3,2.5-2.4,3.8-3.6.6-.8,0-1.9.4-2.8.1-.4.6-.4.8-.8.2-.3.2-.8,0-1.1h0ZM130.4,422.7c.8.2,1.3-.4,1.5-1,.5-.6.2-1.7-.6-1.8-.1-.5-.5-.9-1-1,0-.2.1-.5,0-.8,0-.3-.2-.6-.5-.8,1.3-1.1.2-3.2-1.3-2-.6-1.7-2.4-.6-3.3.2-1,.7-2.1,1.2-3.2,1.6-1.2.6-4,.6-3.5,2.5.8,1.5,2.7,0,3.9-.2.2.9,1.2,1.1,1.9.8.1.4.5.7.9.7.8,0,1.5.1,2.3.2.2.2.4.3.6.4.2,0,.5,0,.8,0,.1.4.4.7.8.9,0,0,0,0,.1,0,.1.1.3.3.5.3Z"/>
      <path class="st1" d="M102.3,424.1c-.9-.5-.6-1.9.4-2.1.5,0,1.1-.3,1.6-.4,2.8-.7,5.6-1.4,8.5-1.9,1.7-.2,10-1.7,9.7,1,0,.6-.7,1.1-1.3,1-4.6-.6-9.3.5-13.8,1.6-1.7.2-3.4,1.4-5.1,1Z"/>
      <path class="st1" d="M138.7,419.8c-3.9-3.2,11.6-6.6,13.6-6.3.9.1,2.1,0,2.8.7.6.7,0,2-1.1,1.8-4.3-.7-8.8.9-12.7,2.6-1,.3-1.6,1.6-2.7,1.2Z"/>
    </g>
    <g>
      <path class="st10" d="M128.2,459.6c-14.1-.4-28.5-1.7-41.7-6.8-7.1-2.9-12.9-8.2-17.6-14.1-15.2-20.8-3.8-54.1,14.3-69.7,0,0,0,0,0,0,0,0,0,0,0,.1.7-1.2,2.5-.1,1.8,1.1-1.8,1.8-3.9,3.5-5.5,5.5-3.3,3.7-6,7.8-8.2,12.2-7.5,15.2-11.3,35.7,0,50,7.5,10,17.6,14.4,29.6,16.7,13.7,2.3,27.9,4,41.7,1.4,12.7-3.2,25.1-9.5,32.7-20.4,5.9-9.2,7.5-22.3,5.7-33-2.8-12.5-9.3-25-19.4-33-2.1-.8-1.8-3,.1-2.5,1.2.8,2.4,1.6,3.4,2.5,4.4,4,7.9,9,10.8,14.1,9.3,15.2,10.4,34.1,2.7,50.2-10.1,17.1-31,25.5-50.3,25.4Z"/>
      <path class="st10" d="M83.8,369.9c-.6-.5-.3-1.3-.5-1.9-.1-.9-.6-2.4.7-2.6,1.6,0,1.3,2.1,1.5,3.1.3,1-.8,2.1-1.8,1.4Z"/>
      <path class="st10" d="M159.4,369.2c-.7-.7-1.4-4.6.1-4.7,1.7,0,1.1,2.2,1.5,3.3.5,1-.7,2.1-1.6,1.4Z"/>
      <path class="st10" d="M93.5,368.1c-3.4-.5-8,.2-10.2-2.9-.7-1.2,0-3.9,1.7-3.5,4.3-2.8,12.8-3.2,18-3.8,11.2-.7,22.4-.9,33.6-.4,5.6.1,11.3.7,16.8,1.8,2.2.5,4.6.7,6.6,1.9,3.7,2.5-.5,4.7-3.2,5-11.9,2-24.1,1.8-36.1,2.1-9,.4-18.1.5-27.2,0h0ZM107,366.4c9,0,17.9-.6,26.9-.5,4.7,0,9.4-.3,14.1-.8,3.7-.5,7.6-.4,11.1-1.9-3-1.7-6.7-1.7-9.9-2.4-8.8-1.4-17.8-1.2-26.7-1.4-12.4.4-25.5-.2-37.1,4.2-1.4,3.3,19.1,2.6,21.7,2.8Z"/>
      <path class="st10" d="M114.2,401.2c-15.7-.3-31-10.6-46.6-4.3-.8.9-2.4-.2-1.7-1.3,1.5-1.5,4-1.7,6-2.2,10.8-2.5,21.3,1.9,31.8,4.2,8.5,1.7,17.1,2.2,25.5.5,6.7-1.6,13.4-3.6,20.4-4.1,7.9-.5,15.8,2.3,23.6,1.1,1.6.1,3.3-2.4,4.6-.9-.9,6.8-22.6,1-28,2-12.1.9-23.5,6.5-35.8,5,0,0,.1,0,.1,0Z"/>
      <path class="st10" d="M176.7,394.6c-.8-.8.2-2.1,1.1-2.2,2.3.2.3,3.5-1.1,2.2Z"/>
      <path class="st10" d="M118.5,433.8c-6.2-.5-17.6-1.3-17.4-9.7-.7-2.3,4.7-4.5,6.5-5.2,8.2-3.1,21.5-.3,27.4,6.2,1.4,2.5-2.1,4.4-3.8,5.6-3.8,2.2-8.2,3.2-12.5,3.1h0ZM120.3,431.7c4.6-.4,9.7-1.7,12.8-5.4-7.4-6.8-21.7-9.3-29.9-2.5-.9,7.2,12.2,7.9,17.3,7.9,0,0-.1,0-.1,0Z"/>
      <path class="st10" d="M100.2,428.9c-1.3-.6-.8-2.2,0-3.1-1.4-.5-2.1-2.6-.5-3.2,1.4-.8,4.7.8,2.7,2.2.5.7,0,1.6-.4,2.2,1.4,1.1-.5,2.6-1.7,1.9Z"/>
      <path class="st10" d="M108.8,426.3c-1.6-.5-.7-2.8.7-2.9,2,.3,1.2,3.2-.7,2.9Z"/>
      <path class="st10" d="M116.2,439.4c-1.6-.6-6-6.8-3.8-7.8.5-.2,1.2,0,1.4.6.6,2,1.6,4.4,3.6,5.5,2.4.4,1-3.2.4-4.2-.4-.8.6-1.8,1.4-1.4,2.8,2.6,2.1,9.7-3,7.4Z"/>
      <path class="st10" d="M131.2,424.2c-1.8-1.1,1.2-3.4-.4-4.9-.5-.5-1.2-.8-1.5-1.5-.4-.7,0-1.4-.3-2.1-1.5-.8-3.5.2-5.1-.5-.8-.4-.6-1.3-.6-2-1.9-.5-6.3,3.9-6-.5-2.8.7-5,3.4-6.9,5.4-1,.8-1.4,2.6-2.7,2.8-3.1-.7,1.8-4.7,2.6-5.8,2-1.9,7.1-7.3,9.1-3,2-1.2,5.9-2.2,6.1,1.2,2.7-.3,6.4,0,5.8,3.6,1.2.8,2.1,2,2.1,3.5-.1,1.3-.4,4.2-2.2,3.7Z"/>
      <path class="st10" d="M144.3,446.9c-4.8-1.4-1.5-9.5-1.9-13.1,0-3.6-3.2-6.6-6.8-5.3-.9.2-1.6-1-1-1.7-2.4,0-.5-2.7,0-3.8,1.5-3,3.5-5.9,6.4-7.7,5.1-3.1,13.6-5.2,17.6.5,1.6,2.9,0,4-2.6,4.9-.1,1.2.9,2.7-.2,3.9-.8,1.2-2.6.9-3.4,2,0,0,0,0,0-.1-.6,1.6.3,3.4.2,5.1,0,2.1-2.2,3-3.1,4.7-1,2.4-.4,5.2-1.6,7.5-.7,1.4-1.8,3.3-3.6,3.2h0ZM144.5,444.8c2.6-1.8,1.9-5.6,2.7-8.3,2.2-5.7,4-1.4,2.9-9.2,0-2.7,2.2-3,4.1-4-.7-3.3-.4-4.1,2.9-5.3-1.7-5.5-9.5-3.6-13.5-1.7-4.3,1.9-6.4,6.2-8.4,10.1,4.3-1.4,8.6,1.9,9.1,6.3.8,4-1.7,8.4,0,12.1Z"/>
      <path class="st10" d="M119.2,374.1c-10.7-.3-21.6-.5-32.1-2.4-1.2-.4-4.3-1.1-2.5-2.7,1.4-.4,2.9.9,4.4,1,23.2,2.8,47.2,3.2,70-2,4.9,3.3-17.7,4.9-19.4,5.3-6.8.7-13.6.9-20.4.8Z"/>
      <path class="st10" d="M90.4,422.3c-2.2-.9-1.6-5.1.9-4.9,1.2-.9,3,.2,3.3,1.5.8,2.3-2,4.7-4.2,3.4h0ZM91.8,420.5c1-.2,1-1.5-.1-1.4-.6.3-.7,1.4.1,1.4Z"/>
      <path class="st10" d="M88.9,410.6c-.7-1.3-.4-3.3,1.1-3.9,1.3-2.7,5.8-2,6.5.9,1.3,4.5-5.3,7.1-7.5,3h0ZM92.6,410.6c3.4-.5,1.5-5.3-1.3-2.7,0,.4-.3.6-.6.8-.5,1.1.9,1.9,1.9,1.8Z"/>
      <path class="st10" d="M146.4,378.7c-1.3-1.6-2.7-3.1-4.4-4.3-.7-.3-1.3-.8-1-1.7,1.5-2.4,5.8,3.5,7,4.7.9,1.1-.8,2.4-1.7,1.3Z"/>
      <path class="st10" d="M155.7,380.7c-1.1-2.1-2.4-4.1-4.1-5.7-1-1.2-3.1-1.6-3.5-3.2.6-3.6,7.2,3.8,7.9,5.1.6,1.1,1.7,2.2,1.6,3.5-.2.9-1.5,1.1-2,.3Z"/>
      <path class="st10" d="M57.2,410.9c.2-6.2,1.4-12.4,4-18.1.9-1.2,1.5-5.2,3.5-4.5,1.6.9-1.4,4.3-1.7,5.7-1.2,2.6-2,5.4-2.7,8.2-.6,2.9-.9,5.8-1,8.7,0,1.4-2.2,1.4-2.1,0Z"/>
      <path class="st10" d="M57,420.7c0-1.3-1.1-4,.8-4.3,1.8.3.8,2.8,1.3,4,.2,1.4-1.9,1.7-2.1.3Z"/>
    </g>
  </g>
  <path class="st10" d="M5.4,434.9h0s0,0,0,0c0-.3,0-.6.1-.9,0-.2,0-.4,0-.6h0s0,0,0,0h0s0,0,0,0c0-.2,0-.4,0-.6h0c0-.1,0-.3,0-.4,16.9,0,33.9.2,50.9.3,2.6,0,5.3,0,7.9,0h2.3s0,0,0,0c0,0,0,.2,0,.2.2.4.4.8.6,1.1,0,0,0,.1,0,.2h0s0,0,0,0h0s0,0,0,0h0s0,0,0,0h0s0,0,0,0h0s0,0,0,0h0s0,0,0,0h0s0,0,0,0h0s0,0,0,0h0s0,0,0,0h0s0,0,0,0h0s0,0,0,0h0s0,0,0,0h0s0,0,0,0h0s0,0,0,0h0s0,0,0,0h0s0,0,0,0h0s0,0,0,0h0s0,0,0,0h0s0,0,0,0h0s0,0,0,0h0c0,0,0,.2.1.2h0,0c-13.8,0-27.6,0-41.5,0H5.4ZM191,434.9h-14.8,0s0,0,0,0c.4-.5.8-1,1.1-1.6.1-.2.2-.4.3-.6h51.7c0,.1-.1.3-.2.4-.1.3-.2.6-.3.9-.2.2-.3.5-.3.8h0c-12.5,0-25,0-37.5,0h0ZM494.6,432.8h0c0,.1,0,.3,0,.4,0,.2-.1.5-.2.7,0,0,0,.2,0,.3h0s0,0,0,0h0s0,0,0,0h0c0,.2,0,.4-.1.6h0c-5.1,0-10.2,0-15.3,0-26,0-52.1,0-78.1,0h0s0,0,0,0c0,0,0-.2,0-.3.1-.6,0-1.4-.5-1.8h94.2,0ZM339.7,434.9h-54.5c0,0,0,0,0,0h0s0,0,0,0h0s0,0,0,0h0s0,0,0,0h0s0,0,0,0h0s0,0,0,0h0s0,0,0,0h0s0,0,0,0c0-.3-.1-.5-.2-.8,0-.3-.1-.6-.2-.9,0-.1,0-.2,0-.3h58.3,0s0,0,0,0c-.2.2-.4.4-.6.6h0c0,0,0,0,0,0h0c-.2.3-.4.5-.7.8h0s0,0,0,0h0s0,0,0,0h0s0,0,0,0h0s0,0,0,0h0s0,0,0,0c-.1.1-.2.3-.4.4,0,0,0,0,0,0h-1.4Z"/>
  <path class="st10" d="M139.1,346.5s0,0,0,0c-.3,0-.6,0-.9-.1-3.1-3.8-5.9-8.4-6.9-13.3-.9-3.7,3.1-6.8,6.4-4.7.6.3,1.7,1.4,2.4,2.6.7-1.2,2-2.4,2.7-2.9,3.6-2.7,8.2.7,6.7,4.9-.6,2.9-7.5,13.8-10.3,13.6h0ZM139.2,344.3c.7-.8,1.8-1.5,2.1-2.1,2-2.3,3.8-4.7,5.1-7.4,3.7-6.4-2.6-7.7-4.8-1.8-.1.2-.3.4-.5.5,0,.4-.3.8-.7,1-1.8.3-1.7-3.5-3.5-4.3-8.3-2.4.6,11.6,2.4,14,0,0,0,0,0,0Z"/>
  <path class="st10" d="M449.5,138.5c.2-1.2-.6-3.5,1.1-3.7,1.8.2.8,2.5,1,3.7,0,1.4-2.1,1.4-2.1,0h0ZM446.4,142.8c-.9-.1-2.5.2-2.6-1.2,0-.6.5-1.1,1.1-1.1,4.5-.4,3.5,3.1,1.5,2.2h0ZM448.9,147.8c0,1.4,2.2,1.4,2.1,0-.4-1.3.7-4.7-1.2-4.9-.6,0-1.1.5-1.1,1.1,0,1.3,0,2.5.1,3.8h0ZM452.6,142.8c-1.1,0-1.5-1.6-.4-2.1,1.1-.1,2.2,0,3.3-.1.6,0,1.1.5,1.1,1.1-.2,1.7-2.7,1-4,1.1Z"/>
  <path class="st10" d="M93.3,311.6c0-1.3-.5-5.6,2-3.9.5,1.2,0,2.6.2,3.9,0,1.4-2.1,1.4-2.1,0h0ZM88,315.2c-.7-.5-.4-1.8.5-1.9,1.1,0,3.2-.8,3.3.9,0,.7-.7,1.1-1.3,1.1-.8,0-1.8.4-2.5,0h0ZM93.1,319.7c.1-1.3-.5-3.5,1-4.2.6-.2,1.2.2,1.3.7,0,1.1-.3,2.3-.2,3.4,0,1.4-2.1,1.4-2.1,0h0ZM99,315.4c1.4.2,1.7-1.9.3-2.1-.9,0-2.1-.7-2.8,0-1.2,1.7,1.3,2.1,2.5,2.1Z"/>
</svg>