<?xml version="1.0" encoding="UTF-8"?>
<svg id="Layer_1" xmlns="http://www.w3.org/2000/svg" xmlns:xlink="http://www.w3.org/1999/xlink" version="1.1" viewBox="0 0 800 800">
  <!-- Generator: Adobe Illustrator 29.3.1, SVG Export Plug-In . SVG Version: 2.1.0 Build 151)  -->
  <defs>
    <style>
      .st0 {
        fill: #e5e7eb;
      }

      .st1 {
        fill: #697282;
      }
    </style>
  </defs>
  <g>
    <path class="st1" d="M508.9,800H172.7c-44.5,0-80.7-36.2-80.7-80.7v-367.3c0-27.2,13.7-52.3,36.5-67.1l207.8-134.1c38.7-24.9,88.6-24.9,127.3,0l207.8,134.1c22.9,14.8,36.5,39.8,36.5,67.1v400.6c0,12.7-10.3,23.1-23.1,23.1s-23.1-10.3-23.1-23.1v-400.6c0-11.5-5.8-22.1-15.4-28.3l-207.8-134.1c-23.5-15.1-53.8-15.1-77.3,0l-207.8,134.1c-9.6,6.2-15.4,16.8-15.4,28.3v367.3c0,19.1,15.5,34.6,34.6,34.6h336.2c12.7,0,23.1,10.3,23.1,23.1s-10.3,23.1-23.1,23.1Z"/>
    <path class="st1" d="M760.8,270.3c-4.4,0-8.9-1.3-12.9-4L439.8,58.5c-24.2-16.3-55.5-16.3-79.7,0L52.1,266.3c-10.6,7.1-24.9,4.3-32-6.2-7.1-10.6-4.3-24.9,6.2-32L334.3,20.2c39.9-26.9,91.5-26.9,131.3,0l308.1,207.9c10.6,7.1,13.4,21.5,6.2,32-4.5,6.6-11.7,10.2-19.2,10.2Z"/>
  </g>
  <path class="st0" d="M555.6,461.8c27.1-34.8,2.9-99,2.9-99,0,0-67.1-7.6-94.6,26.3-19.6-7.3-41.2-11.3-63.8-11.3s-44.2,4-63.8,11.3c-27.5-33.9-94.6-26.3-94.6-26.3,0,0-24.2,64.2,2.9,99,1.2,1.6,2.5,3,3.9,4.4-8.3,17.2-12.8,43.3-12.8,63.2,0,79.8,73.6,118,164.5,118s164.5-38.3,164.5-118-4.6-46-12.8-63.2c1.4-1.4,2.7-2.8,3.9-4.4Z"/>
  <g>
    <path class="st1" d="M400,670.5c-113.9,0-187.5-55.4-187.5-141.1s2.6-38.8,9.6-59.4c-27.7-43.9-4.9-107.9-2.1-115.3,3.1-8.1,10.4-13.8,19-14.8.8,0,8-.9,18.7-.9,26.2,0,60.3,4.5,84.5,23.8,18.6-5.4,38-8.1,57.8-8.1s39.2,2.7,57.8,8.1c24.3-19.4,58.4-23.8,84.5-23.8s17.9.8,18.7.9c8.6,1,15.9,6.7,19,14.8,2.8,7.5,25.6,71.5-2.1,115.3,7,20.6,9.6,43.8,9.6,59.4,0,85.7-73.6,141.1-187.5,141.1ZM258.9,385.2c-4.6,18.8-8,47.4,3.7,62.5.5.7,1.2,1.5,2.2,2.4,6.8,6.9,8.6,17.4,4.4,26.2-6.1,12.8-10.6,35.1-10.6,53.2,0,29.8,12.7,53.2,37.8,69.6,24.9,16.3,61.7,25.3,103.6,25.3s78.8-9,103.6-25.3c25.1-16.4,37.8-39.9,37.8-69.6s-4.4-40.5-10.6-53.2c-4.2-8.8-2.5-19.2,4.3-26.2,1-1,1.6-1.7,2.2-2.4,11.8-15.1,8.3-43.6,3.7-62.4-28.3.2-49.9,6.9-59.3,18.5-6.2,7.7-16.7,10.5-25.9,7.1-17.7-6.5-36.4-9.9-55.8-9.9s-38.2,3.3-55.8,9.9c-9.3,3.4-19.7.6-25.9-7.1-9.4-11.6-31-18.3-59.3-18.5Z"/>
    <path class="st1" d="M332.6,520.5h-3.2c-12.7,0-23.1-10.3-23.1-23.1s10.3-23.1,23.1-23.1h3.2c12.7,0,23.1,10.3,23.1,23.1,0,12.7-10.3,23.1-23.1,23.1Z"/>
    <path class="st1" d="M470.6,520.5h-3.2c-12.7,0-23.1-10.3-23.1-23.1s10.3-23.1,23.1-23.1h3.2c12.7,0,23.1,10.3,23.1,23.1,0,12.7-10.3,23.1-23.1,23.1Z"/>
  </g>
</svg>